STARTFONT 2.1
COMMENT
COMMENT Converted from OpenType font "BrandonGrotesque-Bold.ttf" by "otf2bdf 3.0".
COMMENT
FONT -FreeType-Brandon Grotesque Bold-Medium-R-Normal--19-180-75-75-P-86-ISO10646-1
SIZE 18 75 75
FONTBOUNDINGBOX 21 27 -3 -7
STARTPROPERTIES 19
FOUNDRY "FreeType"
FAMILY_NAME "Brandon Grotesque Bold"
WEIGHT_NAME "Medium"
SLANT "R"
SETWIDTH_NAME "Normal"
ADD_STYLE_NAME ""
PIXEL_SIZE 19
POINT_SIZE 180
RESOLUTION_X 75
RESOLUTION_Y 75
SPACING "P"
AVERAGE_WIDTH 86
CHARSET_REGISTRY "ISO10646"
CHARSET_ENCODING "1"
FONT_ASCENT 19
FONT_DESCENT 7
COPYRIGHT "Copyright (c) 2009 by Hannes von Doehren. All rights reserved."
_OTF_FONTFILE "BrandonGrotesque-Bold.ttf"
_OTF_PSNAME "BrandonGrotesque-Bold"
ENDPROPERTIES
CHARS 413
STARTCHAR 0020
ENCODING 32
SWIDTH 213 0
DWIDTH 4 0
BBX 0 0 0 0
BITMAP
ENDCHAR
STARTCHAR 0021
ENCODING 33
SWIDTH 320 0
DWIDTH 6 0
BBX 3 14 2 0
BITMAP
E0
E0
E0
E0
E0
C0
40
40
00
00
00
C0
E0
C0
ENDCHAR
STARTCHAR 0022
ENCODING 34
SWIDTH 373 0
DWIDTH 7 0
BBX 5 4 1 10
BITMAP
D8
D8
D8
98
ENDCHAR
STARTCHAR 0023
ENCODING 35
SWIDTH 533 0
DWIDTH 10 0
BBX 9 14 1 0
BITMAP
1100
1200
2200
2200
2200
FF80
2200
2200
2400
FF00
4400
4400
4400
4400
ENDCHAR
STARTCHAR 0024
ENCODING 36
SWIDTH 533 0
DWIDTH 10 0
BBX 8 17 1 -2
BITMAP
08
3E
7F
EB
C8
E8
F8
7C
1E
0F
0B
0B
6B
FF
3E
08
08
ENDCHAR
STARTCHAR 0025
ENCODING 37
SWIDTH 693 0
DWIDTH 13 0
BBX 11 14 1 0
BITMAP
70C0
F880
D980
D980
FB00
7300
0600
0600
0C00
0DC0
1BE0
1B60
3360
31C0
ENDCHAR
STARTCHAR 0026
ENCODING 38
SWIDTH 693 0
DWIDTH 13 0
BBX 11 14 1 0
BITMAP
3C00
7F00
6700
6300
6300
3600
3C40
7CE0
EEC0
C7C0
C380
E3C0
7FE0
3C60
ENDCHAR
STARTCHAR 0027
ENCODING 39
SWIDTH 160 0
DWIDTH 3 0
BBX 2 4 1 10
BITMAP
C0
C0
C0
80
ENDCHAR
STARTCHAR 0028
ENCODING 40
SWIDTH 373 0
DWIDTH 7 0
BBX 5 15 1 -1
BITMAP
18
78
60
E0
C0
C0
C0
C0
C0
C0
C0
E0
70
38
18
ENDCHAR
STARTCHAR 0029
ENCODING 41
SWIDTH 320 0
DWIDTH 6 0
BBX 5 15 0 -1
BITMAP
E0
F0
30
38
18
18
18
18
18
18
18
38
30
F0
E0
ENDCHAR
STARTCHAR 002A
ENCODING 42
SWIDTH 373 0
DWIDTH 7 0
BBX 5 6 1 8
BITMAP
20
A8
F0
F0
A8
20
ENDCHAR
STARTCHAR 002B
ENCODING 43
SWIDTH 533 0
DWIDTH 10 0
BBX 8 8 1 3
BITMAP
18
18
18
FF
FF
18
18
18
ENDCHAR
STARTCHAR 002C
ENCODING 44
SWIDTH 266 0
DWIDTH 5 0
BBX 4 7 1 -4
BITMAP
E0
E0
F0
20
20
40
40
ENDCHAR
STARTCHAR 002D
ENCODING 45
SWIDTH 373 0
DWIDTH 7 0
BBX 5 2 1 4
BITMAP
F8
F8
ENDCHAR
STARTCHAR 002E
ENCODING 46
SWIDTH 266 0
DWIDTH 5 0
BBX 3 3 1 0
BITMAP
E0
E0
E0
ENDCHAR
STARTCHAR 002F
ENCODING 47
SWIDTH 373 0
DWIDTH 7 0
BBX 5 14 1 0
BITMAP
18
18
18
30
30
30
70
60
60
60
E0
C0
C0
C0
ENDCHAR
STARTCHAR 0030
ENCODING 48
SWIDTH 586 0
DWIDTH 11 0
BBX 9 13 1 0
BITMAP
3E00
7F00
6300
E380
C180
C180
C180
C180
C180
E380
6300
7F00
3E00
ENDCHAR
STARTCHAR 0031
ENCODING 49
SWIDTH 373 0
DWIDTH 7 0
BBX 4 13 1 0
BITMAP
30
70
F0
F0
30
30
30
30
30
30
30
30
30
ENDCHAR
STARTCHAR 0032
ENCODING 50
SWIDTH 533 0
DWIDTH 10 0
BBX 8 13 1 0
BITMAP
3C
7E
67
03
03
07
06
0C
1C
38
70
7F
FF
ENDCHAR
STARTCHAR 0033
ENCODING 51
SWIDTH 480 0
DWIDTH 9 0
BBX 8 13 0 0
BITMAP
3E
7F
67
03
07
3E
3E
07
03
03
67
FE
3C
ENDCHAR
STARTCHAR 0034
ENCODING 52
SWIDTH 640 0
DWIDTH 12 0
BBX 10 13 1 0
BITMAP
0300
0700
0F00
0F00
1B00
3300
7300
E300
FFC0
FFC0
0300
0300
0300
ENDCHAR
STARTCHAR 0035
ENCODING 53
SWIDTH 533 0
DWIDTH 10 0
BBX 8 13 1 0
BITMAP
FE
FE
C0
C0
FC
FE
07
03
03
03
C7
FE
7C
ENDCHAR
STARTCHAR 0036
ENCODING 54
SWIDTH 586 0
DWIDTH 11 0
BBX 9 14 1 0
BITMAP
0600
1E00
3800
7000
6000
FE00
FF00
E380
C180
C180
C180
6380
7F00
3E00
ENDCHAR
STARTCHAR 0037
ENCODING 55
SWIDTH 533 0
DWIDTH 10 0
BBX 9 13 1 0
BITMAP
FF80
FF80
0700
0700
0E00
0E00
1C00
1C00
3800
3800
7000
7000
E000
ENDCHAR
STARTCHAR 0038
ENCODING 56
SWIDTH 586 0
DWIDTH 11 0
BBX 9 13 1 0
BITMAP
1C00
7E00
7700
6300
6300
7700
3E00
7700
C180
C180
E380
7F00
3E00
ENDCHAR
STARTCHAR 0039
ENCODING 57
SWIDTH 586 0
DWIDTH 11 0
BBX 9 14 1 0
BITMAP
3E00
7F00
E300
C180
C180
C180
E380
7F80
3F80
0300
0700
0E00
3C00
3000
ENDCHAR
STARTCHAR 003A
ENCODING 58
SWIDTH 266 0
DWIDTH 5 0
BBX 3 8 1 0
BITMAP
C0
E0
40
00
00
40
E0
C0
ENDCHAR
STARTCHAR 003B
ENCODING 59
SWIDTH 266 0
DWIDTH 5 0
BBX 3 11 1 -3
BITMAP
C0
E0
40
00
00
00
E0
E0
20
60
40
ENDCHAR
STARTCHAR 003C
ENCODING 60
SWIDTH 426 0
DWIDTH 8 0
BBX 7 9 1 0
BITMAP
02
0E
1C
70
E0
70
1C
0E
02
ENDCHAR
STARTCHAR 003D
ENCODING 61
SWIDTH 480 0
DWIDTH 9 0
BBX 7 6 1 2
BITMAP
FE
FE
00
00
FE
FE
ENDCHAR
STARTCHAR 003E
ENCODING 62
SWIDTH 426 0
DWIDTH 8 0
BBX 7 9 1 0
BITMAP
80
E0
70
1C
0E
3C
70
E0
80
ENDCHAR
STARTCHAR 003F
ENCODING 63
SWIDTH 426 0
DWIDTH 8 0
BBX 7 14 0 0
BITMAP
3C
FE
C6
06
06
0C
1C
18
18
00
00
38
38
38
ENDCHAR
STARTCHAR 0040
ENCODING 64
SWIDTH 1013 0
DWIDTH 19 0
BBX 17 18 1 -5
BITMAP
03F000
0FFC00
1C1E00
380700
700300
600380
E1D180
C3F180
C77180
C63180
C63180
C73300
E3FF00
61DE00
700000
380000
1E0000
0E0000
ENDCHAR
STARTCHAR 0041
ENCODING 65
SWIDTH 640 0
DWIDTH 12 0
BBX 12 14 0 0
BITMAP
0200
0600
0700
0F00
0F80
1D80
1980
19C0
38C0
3FE0
7FE0
6070
E030
E030
ENDCHAR
STARTCHAR 0042
ENCODING 66
SWIDTH 640 0
DWIDTH 12 0
BBX 9 14 2 0
BITMAP
FC00
FE00
C700
C300
C300
C700
FE00
FF00
C380
C180
C180
C380
FF00
FE00
ENDCHAR
STARTCHAR 0043
ENCODING 67
SWIDTH 640 0
DWIDTH 12 0
BBX 11 14 1 0
BITMAP
0F80
3FE0
78C0
6000
E000
C000
C000
C000
C000
E000
6000
78C0
3FE0
0F80
ENDCHAR
STARTCHAR 0044
ENCODING 68
SWIDTH 746 0
DWIDTH 14 0
BBX 11 14 2 0
BITMAP
FE00
FF80
C3C0
C0C0
C0E0
C060
C060
C060
C060
C0E0
C0C0
C3C0
FF80
FE00
ENDCHAR
STARTCHAR 0045
ENCODING 69
SWIDTH 586 0
DWIDTH 11 0
BBX 9 14 2 0
BITMAP
FF80
FF80
C000
C000
C000
C000
FF00
FF00
C000
C000
C000
C000
FF80
FF80
ENDCHAR
STARTCHAR 0046
ENCODING 70
SWIDTH 586 0
DWIDTH 11 0
BBX 9 14 2 0
BITMAP
FF80
FF80
C000
C000
C000
C000
FF00
FF00
C000
C000
C000
C000
C000
C000
ENDCHAR
STARTCHAR 0047
ENCODING 71
SWIDTH 693 0
DWIDTH 13 0
BBX 11 14 1 0
BITMAP
0F80
3FE0
78C0
6000
E000
C000
C000
C1E0
C1E0
E060
6060
78E0
3FE0
0F80
ENDCHAR
STARTCHAR 0048
ENCODING 72
SWIDTH 800 0
DWIDTH 15 0
BBX 11 14 2 0
BITMAP
C060
C060
C060
C060
C060
C060
FFE0
FFE0
C060
C060
C060
C060
C060
C060
ENDCHAR
STARTCHAR 0049
ENCODING 73
SWIDTH 320 0
DWIDTH 6 0
BBX 2 14 2 0
BITMAP
C0
C0
C0
C0
C0
C0
C0
C0
C0
C0
C0
C0
C0
C0
ENDCHAR
STARTCHAR 004A
ENCODING 74
SWIDTH 373 0
DWIDTH 7 0
BBX 6 14 0 0
BITMAP
0C
0C
0C
0C
0C
0C
0C
0C
0C
0C
0C
DC
F8
70
ENDCHAR
STARTCHAR 004B
ENCODING 75
SWIDTH 640 0
DWIDTH 12 0
BBX 10 14 2 0
BITMAP
C180
C380
C700
CE00
DC00
F800
F800
F800
DC00
CE00
CE00
C700
C380
C1C0
ENDCHAR
STARTCHAR 004C
ENCODING 76
SWIDTH 533 0
DWIDTH 10 0
BBX 8 14 2 0
BITMAP
C0
C0
C0
C0
C0
C0
C0
C0
C0
C0
C0
C0
FF
FF
ENDCHAR
STARTCHAR 004D
ENCODING 77
SWIDTH 853 0
DWIDTH 16 0
BBX 14 14 1 0
BITMAP
2010
3010
3038
3038
7878
7878
7C78
6CD8
6EDC
67DC
E78C
E38C
C30C
C10C
ENDCHAR
STARTCHAR 004E
ENCODING 78
SWIDTH 800 0
DWIDTH 15 0
BBX 11 14 2 0
BITMAP
8060
C060
E060
F060
F860
FC60
DE60
CF60
C7E0
C3E0
C1E0
C0E0
C060
C020
ENDCHAR
STARTCHAR 004F
ENCODING 79
SWIDTH 800 0
DWIDTH 15 0
BBX 13 14 1 0
BITMAP
0F80
3FE0
78F0
6030
E038
C018
C018
C018
C018
E038
6030
78F0
3FE0
0F80
ENDCHAR
STARTCHAR 0050
ENCODING 80
SWIDTH 640 0
DWIDTH 12 0
BBX 9 14 2 0
BITMAP
FE00
FF00
C380
C180
C180
C380
FF00
FE00
C000
C000
C000
C000
C000
C000
ENDCHAR
STARTCHAR 0051
ENCODING 81
SWIDTH 800 0
DWIDTH 15 0
BBX 13 18 1 -4
BITMAP
0F80
3FE0
78F0
6030
E038
C018
C018
C018
C018
E038
6030
78F0
3FE0
0FC0
00C0
00E0
0070
0030
ENDCHAR
STARTCHAR 0052
ENCODING 82
SWIDTH 693 0
DWIDTH 13 0
BBX 10 14 2 0
BITMAP
FF00
FF80
C1C0
C0C0
C0C0
C1C0
FF80
FF00
C700
C700
C380
C380
C1C0
C1C0
ENDCHAR
STARTCHAR 0053
ENCODING 83
SWIDTH 586 0
DWIDTH 11 0
BBX 9 14 1 0
BITMAP
3C00
7F00
E600
C000
C000
F000
7C00
1F00
0700
0380
0380
E780
FF00
3E00
ENDCHAR
STARTCHAR 0054
ENCODING 84
SWIDTH 586 0
DWIDTH 11 0
BBX 9 14 1 0
BITMAP
FF80
FF80
1800
1800
1800
1800
1800
1800
1800
1800
1800
1800
1800
1800
ENDCHAR
STARTCHAR 0055
ENCODING 85
SWIDTH 746 0
DWIDTH 14 0
BBX 10 14 2 0
BITMAP
C0C0
C0C0
C0C0
C0C0
C0C0
C0C0
C0C0
C0C0
C0C0
C0C0
C0C0
7180
7F80
1E00
ENDCHAR
STARTCHAR 0056
ENCODING 86
SWIDTH 640 0
DWIDTH 12 0
BBX 12 14 0 0
BITMAP
E030
E070
7070
70E0
30E0
38C0
19C0
1D80
1F80
0F80
0F00
0700
0600
0200
ENDCHAR
STARTCHAR 0057
ENCODING 87
SWIDTH 906 0
DWIDTH 17 0
BBX 15 14 1 0
BITMAP
C106
C306
C38E
E38E
67CC
66CC
66DC
7CF8
3C78
3C78
3838
3830
1830
1010
ENDCHAR
STARTCHAR 0058
ENCODING 88
SWIDTH 640 0
DWIDTH 12 0
BBX 10 14 1 0
BITMAP
E1C0
E1C0
7380
7700
3F00
1E00
1E00
1E00
3E00
3F00
7380
7380
E1C0
C1C0
ENDCHAR
STARTCHAR 0059
ENCODING 89
SWIDTH 533 0
DWIDTH 10 0
BBX 10 14 0 0
BITMAP
C0C0
E1C0
7380
3300
3F00
1E00
0E00
0C00
0C00
0C00
0C00
0C00
0C00
0C00
ENDCHAR
STARTCHAR 005A
ENCODING 90
SWIDTH 586 0
DWIDTH 11 0
BBX 9 14 1 0
BITMAP
FF80
FF80
0700
0700
0E00
0E00
1C00
1C00
3800
3800
7000
7000
FF80
FF80
ENDCHAR
STARTCHAR 005B
ENCODING 91
SWIDTH 373 0
DWIDTH 7 0
BBX 5 20 1 -6
BITMAP
F8
F8
C0
C0
C0
C0
C0
C0
C0
C0
C0
C0
C0
C0
C0
C0
C0
C0
F8
F8
ENDCHAR
STARTCHAR 005C
ENCODING 92
SWIDTH 373 0
DWIDTH 7 0
BBX 6 14 0 0
BITMAP
E0
60
60
60
70
30
30
30
18
18
18
1C
0C
0C
ENDCHAR
STARTCHAR 005D
ENCODING 93
SWIDTH 373 0
DWIDTH 7 0
BBX 5 20 1 -6
BITMAP
F8
F8
18
18
18
18
18
18
18
18
18
18
18
18
18
18
18
18
F8
F8
ENDCHAR
STARTCHAR 005E
ENCODING 94
SWIDTH 533 0
DWIDTH 10 0
BBX 8 6 1 9
BITMAP
18
3C
3C
66
E7
C3
ENDCHAR
STARTCHAR 005F
ENCODING 95
SWIDTH 480 0
DWIDTH 9 0
BBX 7 1 1 -1
BITMAP
FE
ENDCHAR
STARTCHAR 0060
ENCODING 96
SWIDTH 320 0
DWIDTH 6 0
BBX 4 3 1 11
BITMAP
C0
70
10
ENDCHAR
STARTCHAR 0061
ENCODING 97
SWIDTH 426 0
DWIDTH 8 0
BBX 6 8 1 0
BITMAP
F8
FC
0C
7C
CC
CC
CC
74
ENDCHAR
STARTCHAR 0062
ENCODING 98
SWIDTH 533 0
DWIDTH 10 0
BBX 8 14 1 0
BITMAP
C0
C0
C0
C0
C0
C0
FC
FE
C7
C3
C3
E7
FE
BC
ENDCHAR
STARTCHAR 0063
ENCODING 99
SWIDTH 426 0
DWIDTH 8 0
BBX 7 8 1 0
BITMAP
3C
7E
E4
C0
C0
E4
7E
3C
ENDCHAR
STARTCHAR 0064
ENCODING 100
SWIDTH 533 0
DWIDTH 10 0
BBX 8 14 1 0
BITMAP
03
03
03
03
03
03
3F
7F
E3
C3
C3
E7
7F
3D
ENDCHAR
STARTCHAR 0065
ENCODING 101
SWIDTH 480 0
DWIDTH 9 0
BBX 8 8 1 0
BITMAP
3C
7E
E6
FF
C0
E4
7E
3C
ENDCHAR
STARTCHAR 0066
ENCODING 102
SWIDTH 426 0
DWIDTH 8 0
BBX 6 14 1 0
BITMAP
3C
3C
74
60
60
60
FC
FC
60
60
60
60
60
60
ENDCHAR
STARTCHAR 0067
ENCODING 103
SWIDTH 533 0
DWIDTH 10 0
BBX 8 14 1 -6
BITMAP
3F
7E
66
66
66
7E
FC
C0
FE
7F
C3
C3
FE
7C
ENDCHAR
STARTCHAR 0068
ENCODING 104
SWIDTH 533 0
DWIDTH 10 0
BBX 8 14 1 0
BITMAP
C0
C0
C0
C0
C0
C0
FC
FE
E7
C3
C3
C3
C3
C3
ENDCHAR
STARTCHAR 0069
ENCODING 105
SWIDTH 213 0
DWIDTH 4 0
BBX 2 13 1 0
BITMAP
C0
C0
00
00
00
C0
C0
C0
C0
C0
C0
C0
C0
ENDCHAR
STARTCHAR 006A
ENCODING 106
SWIDTH 213 0
DWIDTH 4 0
BBX 5 19 -2 -6
BITMAP
18
18
00
00
00
18
18
18
18
18
18
18
18
18
18
18
B8
F0
F0
ENDCHAR
STARTCHAR 006B
ENCODING 107
SWIDTH 480 0
DWIDTH 9 0
BBX 8 14 1 0
BITMAP
C0
C0
C0
C0
C0
C0
CE
DC
D8
F0
F8
DC
CE
C7
ENDCHAR
STARTCHAR 006C
ENCODING 108
SWIDTH 213 0
DWIDTH 4 0
BBX 2 14 1 0
BITMAP
C0
C0
C0
C0
C0
C0
C0
C0
C0
C0
C0
C0
C0
C0
ENDCHAR
STARTCHAR 006D
ENCODING 109
SWIDTH 746 0
DWIDTH 14 0
BBX 12 8 1 0
BITMAP
BDE0
FFF0
E630
C630
C630
C630
C630
C630
ENDCHAR
STARTCHAR 006E
ENCODING 110
SWIDTH 533 0
DWIDTH 10 0
BBX 8 8 1 0
BITMAP
BC
FE
E7
C3
C3
C3
C3
C3
ENDCHAR
STARTCHAR 006F
ENCODING 111
SWIDTH 533 0
DWIDTH 10 0
BBX 8 8 1 0
BITMAP
3C
7E
E7
C3
C3
E7
7E
3C
ENDCHAR
STARTCHAR 0070
ENCODING 112
SWIDTH 533 0
DWIDTH 10 0
BBX 8 14 1 -6
BITMAP
BC
FE
E7
C3
C3
C7
FE
FC
C0
C0
C0
C0
C0
C0
ENDCHAR
STARTCHAR 0071
ENCODING 113
SWIDTH 533 0
DWIDTH 10 0
BBX 8 14 1 -6
BITMAP
3D
7F
E7
C3
C3
E3
7F
3F
03
03
03
03
03
03
ENDCHAR
STARTCHAR 0072
ENCODING 114
SWIDTH 320 0
DWIDTH 6 0
BBX 5 8 1 0
BITMAP
B8
F8
C0
C0
C0
C0
C0
C0
ENDCHAR
STARTCHAR 0073
ENCODING 115
SWIDTH 373 0
DWIDTH 7 0
BBX 5 8 1 0
BITMAP
78
F8
C0
F0
38
18
F8
70
ENDCHAR
STARTCHAR 0074
ENCODING 116
SWIDTH 373 0
DWIDTH 7 0
BBX 5 11 1 0
BITMAP
60
60
60
F8
F8
60
60
60
60
78
38
ENDCHAR
STARTCHAR 0075
ENCODING 117
SWIDTH 480 0
DWIDTH 9 0
BBX 7 8 1 0
BITMAP
C6
C6
C6
C6
C6
C6
FE
7A
ENDCHAR
STARTCHAR 0076
ENCODING 118
SWIDTH 426 0
DWIDTH 8 0
BBX 8 8 0 0
BITMAP
C7
66
66
3C
3C
38
18
10
ENDCHAR
STARTCHAR 0077
ENCODING 119
SWIDTH 640 0
DWIDTH 12 0
BBX 11 8 0 0
BITMAP
C460
6660
6EE0
6FC0
3BC0
39C0
3180
1080
ENDCHAR
STARTCHAR 0078
ENCODING 120
SWIDTH 426 0
DWIDTH 8 0
BBX 8 8 0 0
BITMAP
E7
76
3E
1C
3C
3E
76
E7
ENDCHAR
STARTCHAR 0079
ENCODING 121
SWIDTH 480 0
DWIDTH 9 0
BBX 9 14 0 -6
BITMAP
E380
6300
6700
7600
3E00
3C00
1C00
1C00
1800
3800
3000
7000
6000
6000
ENDCHAR
STARTCHAR 007A
ENCODING 122
SWIDTH 373 0
DWIDTH 7 0
BBX 6 8 1 0
BITMAP
FC
F8
38
30
70
60
F8
F8
ENDCHAR
STARTCHAR 007B
ENCODING 123
SWIDTH 426 0
DWIDTH 8 0
BBX 7 20 0 -6
BITMAP
0E
1E
18
30
30
30
30
30
30
60
E0
30
30
30
30
30
30
18
1E
06
ENDCHAR
STARTCHAR 007C
ENCODING 124
SWIDTH 160 0
DWIDTH 3 0
BBX 1 21 1 -6
BITMAP
80
80
80
80
80
80
80
80
80
80
80
80
80
80
80
80
80
80
80
80
80
ENDCHAR
STARTCHAR 007D
ENCODING 125
SWIDTH 426 0
DWIDTH 8 0
BBX 7 20 0 -6
BITMAP
E0
F0
38
18
18
18
18
18
18
0E
0E
18
18
18
18
18
18
38
F0
E0
ENDCHAR
STARTCHAR 007E
ENCODING 126
SWIDTH 533 0
DWIDTH 10 0
BBX 8 3 1 3
BITMAP
71
FF
8E
ENDCHAR
STARTCHAR 00A0
ENCODING 160
SWIDTH 213 0
DWIDTH 4 0
BBX 0 0 0 0
BITMAP
ENDCHAR
STARTCHAR 00A1
ENCODING 161
SWIDTH 266 0
DWIDTH 5 0
BBX 3 14 1 -6
BITMAP
E0
E0
E0
00
00
00
40
40
E0
E0
E0
E0
E0
E0
ENDCHAR
STARTCHAR 00A2
ENCODING 162
SWIDTH 426 0
DWIDTH 8 0
BBX 7 11 1 -2
BITMAP
04
3C
7E
EC
D0
D0
F4
7E
3C
20
20
ENDCHAR
STARTCHAR 00A3
ENCODING 163
SWIDTH 480 0
DWIDTH 9 0
BBX 7 14 1 0
BITMAP
3C
7E
E4
C0
C0
C0
E0
FC
60
60
60
60
FE
FE
ENDCHAR
STARTCHAR 00A4
ENCODING 164
SWIDTH 426 0
DWIDTH 8 0
BBX 6 7 1 3
BITMAP
84
FC
78
CC
78
FC
84
ENDCHAR
STARTCHAR 00A5
ENCODING 165
SWIDTH 640 0
DWIDTH 12 0
BBX 10 14 1 0
BITMAP
C0C0
E1C0
7380
3300
3F00
1E00
0C00
0C00
3F00
0C00
0C00
3F00
0C00
0C00
ENDCHAR
STARTCHAR 00A6
ENCODING 166
SWIDTH 266 0
DWIDTH 5 0
BBX 1 21 2 -6
BITMAP
80
80
80
80
80
80
80
00
00
00
00
00
00
00
80
80
80
80
80
80
80
ENDCHAR
STARTCHAR 00A7
ENCODING 167
SWIDTH 533 0
DWIDTH 10 0
BBX 8 19 1 -5
BITMAP
3C
7F
C6
C0
E0
70
7C
FE
C7
C3
E3
7F
3E
0F
03
03
67
FE
3C
ENDCHAR
STARTCHAR 00A8
ENCODING 168
SWIDTH 426 0
DWIDTH 8 0
BBX 6 2 1 11
BITMAP
CC
CC
ENDCHAR
STARTCHAR 00A9
ENCODING 169
SWIDTH 853 0
DWIDTH 16 0
BBX 14 14 1 0
BITMAP
0FC0
1FE0
3870
6718
EF9C
DC0C
D80C
D80C
DC0C
EF9C
7738
3870
1FE0
0FC0
ENDCHAR
STARTCHAR 00AA
ENCODING 170
SWIDTH 373 0
DWIDTH 7 0
BBX 5 6 1 8
BITMAP
70
18
78
D8
D8
F8
ENDCHAR
STARTCHAR 00AB
ENCODING 171
SWIDTH 480 0
DWIDTH 9 0
BBX 8 7 0 1
BITMAP
33
37
66
EE
66
37
33
ENDCHAR
STARTCHAR 00AC
ENCODING 172
SWIDTH 533 0
DWIDTH 10 0
BBX 8 6 1 2
BITMAP
FF
FF
03
03
03
03
ENDCHAR
STARTCHAR 00AD
ENCODING 173
SWIDTH 373 0
DWIDTH 7 0
BBX 5 2 1 4
BITMAP
F8
F8
ENDCHAR
STARTCHAR 00AE
ENCODING 174
SWIDTH 853 0
DWIDTH 16 0
BBX 14 14 1 0
BITMAP
0FC0
1FE0
3870
6F98
EFDC
CCCC
CCCC
CF8C
CD8C
ED9C
7038
3870
1FE0
0FC0
ENDCHAR
STARTCHAR 00AF
ENCODING 175
SWIDTH 426 0
DWIDTH 8 0
BBX 6 1 1 11
BITMAP
FC
ENDCHAR
STARTCHAR 00B0
ENCODING 176
SWIDTH 373 0
DWIDTH 7 0
BBX 5 5 1 9
BITMAP
70
F8
D8
F8
70
ENDCHAR
STARTCHAR 00B1
ENCODING 177
SWIDTH 533 0
DWIDTH 10 0
BBX 8 11 1 1
BITMAP
18
18
18
FF
FF
18
18
00
00
FF
FF
ENDCHAR
STARTCHAR 00B2
ENCODING 178
SWIDTH 320 0
DWIDTH 6 0
BBX 4 6 1 9
BITMAP
E0
B0
30
20
40
F0
ENDCHAR
STARTCHAR 00B3
ENCODING 179
SWIDTH 266 0
DWIDTH 5 0
BBX 4 6 1 9
BITMAP
E0
B0
E0
20
B0
E0
ENDCHAR
STARTCHAR 00B4
ENCODING 180
SWIDTH 320 0
DWIDTH 6 0
BBX 4 3 1 11
BITMAP
30
E0
80
ENDCHAR
STARTCHAR 00B5
ENCODING 181
SWIDTH 480 0
DWIDTH 9 0
BBX 7 14 1 -6
BITMAP
C6
C6
C6
C6
C6
CE
FE
FA
C0
C0
C0
C0
C0
C0
ENDCHAR
STARTCHAR 00B6
ENCODING 182
SWIDTH 746 0
DWIDTH 14 0
BBX 12 20 1 -6
BITMAP
7FF0
FFF0
FCC0
FCC0
FCC0
FCC0
FCC0
7CC0
1CC0
0CC0
0CC0
0CC0
0CC0
0CC0
0CC0
0CC0
0CC0
0CC0
0CC0
0CC0
ENDCHAR
STARTCHAR 00B7
ENCODING 183
SWIDTH 266 0
DWIDTH 5 0
BBX 3 4 1 3
BITMAP
40
E0
E0
40
ENDCHAR
STARTCHAR 00B8
ENCODING 184
SWIDTH 266 0
DWIDTH 5 0
BBX 3 5 1 -5
BITMAP
80
C0
60
20
E0
ENDCHAR
STARTCHAR 00B9
ENCODING 185
SWIDTH 160 0
DWIDTH 3 0
BBX 3 6 0 9
BITMAP
60
E0
60
60
60
60
ENDCHAR
STARTCHAR 00BA
ENCODING 186
SWIDTH 320 0
DWIDTH 6 0
BBX 5 6 1 8
BITMAP
70
D0
D0
D8
D0
70
ENDCHAR
STARTCHAR 00BB
ENCODING 187
SWIDTH 480 0
DWIDTH 9 0
BBX 7 7 1 1
BITMAP
C8
CC
6E
76
6E
CC
CC
ENDCHAR
STARTCHAR 00BC
ENCODING 188
SWIDTH 693 0
DWIDTH 13 0
BBX 11 14 1 0
BITMAP
6180
E300
6300
6600
6600
6400
0C00
0800
1840
10C0
31C0
2340
63E0
4040
ENDCHAR
STARTCHAR 00BD
ENCODING 189
SWIDTH 693 0
DWIDTH 13 0
BBX 11 14 1 0
BITMAP
6180
E300
6300
6600
6600
6400
0C00
0800
19C0
1160
3060
20C0
6080
41E0
ENDCHAR
STARTCHAR 00BE
ENCODING 190
SWIDTH 693 0
DWIDTH 13 0
BBX 12 14 0 0
BITMAP
6040
10C0
1080
6180
1100
F300
0200
0600
0620
0C60
0CE0
19A0
19F0
3020
ENDCHAR
STARTCHAR 00BF
ENCODING 191
SWIDTH 426 0
DWIDTH 8 0
BBX 7 14 1 -6
BITMAP
38
38
38
00
00
18
18
38
70
E0
C0
C6
FE
78
ENDCHAR
STARTCHAR 00C0
ENCODING 192
SWIDTH 640 0
DWIDTH 12 0
BBX 12 18 0 0
BITMAP
0C00
0F00
0300
0000
0200
0600
0700
0F00
0F80
1D80
1980
19C0
38C0
3FE0
7FE0
6070
E030
E030
ENDCHAR
STARTCHAR 00C1
ENCODING 193
SWIDTH 640 0
DWIDTH 12 0
BBX 12 18 0 0
BITMAP
0300
0700
0C00
0000
0200
0600
0700
0F00
0F80
1D80
1980
19C0
38C0
3FE0
7FE0
6070
E030
E030
ENDCHAR
STARTCHAR 00C2
ENCODING 194
SWIDTH 640 0
DWIDTH 12 0
BBX 12 18 0 0
BITMAP
0600
0F80
0980
0000
0200
0600
0700
0F00
0F80
1D80
1980
19C0
38C0
3FE0
7FE0
6070
E030
E030
ENDCHAR
STARTCHAR 00C3
ENCODING 195
SWIDTH 640 0
DWIDTH 12 0
BBX 12 18 0 0
BITMAP
0C80
1F80
1B00
0000
0200
0600
0700
0F00
0F80
1D80
1980
19C0
38C0
3FE0
7FE0
6070
E030
E030
ENDCHAR
STARTCHAR 00C4
ENCODING 196
SWIDTH 693 0
DWIDTH 13 0
BBX 13 17 0 0
BITMAP
18C0
18C0
0000
0200
0300
0700
0700
0F80
0D80
1DC0
18C0
38E0
3FE0
3FF0
6030
6030
E038
ENDCHAR
STARTCHAR 00C5
ENCODING 197
SWIDTH 640 0
DWIDTH 12 0
BBX 12 19 0 0
BITMAP
0600
0900
0900
0600
0000
0200
0600
0600
0F00
0F00
1F80
1980
39C0
30C0
3FC0
7FE0
6060
E070
C030
ENDCHAR
STARTCHAR 00C6
ENCODING 198
SWIDTH 906 0
DWIDTH 17 0
BBX 17 14 0 0
BITMAP
00FF80
01FF80
01C000
03C000
03C000
07C000
0EFF00
0CFF00
1CC000
1FC000
3FC000
70C000
60FF80
E0FF80
ENDCHAR
STARTCHAR 00C7
ENCODING 199
SWIDTH 693 0
DWIDTH 13 0
BBX 12 19 1 -5
BITMAP
0F80
3FE0
78C0
6000
E000
C000
C000
C000
C000
E000
7000
3860
1FF0
0FC0
0200
0300
0180
0080
0380
ENDCHAR
STARTCHAR 00C8
ENCODING 200
SWIDTH 586 0
DWIDTH 11 0
BBX 9 18 2 0
BITMAP
3000
3800
0C00
0000
FF80
FF80
C000
C000
C000
C000
FF00
FF00
C000
C000
C000
C000
FF80
FF80
ENDCHAR
STARTCHAR 00C9
ENCODING 201
SWIDTH 586 0
DWIDTH 11 0
BBX 9 18 2 0
BITMAP
0C00
1C00
3000
0000
FF80
FF80
C000
C000
C000
C000
FF00
FF00
C000
C000
C000
C000
FF80
FF80
ENDCHAR
STARTCHAR 00CA
ENCODING 202
SWIDTH 586 0
DWIDTH 11 0
BBX 9 18 2 1
BITMAP
1800
7E00
0400
0000
FF80
FF80
C000
C000
C000
C000
FF00
FF00
C000
C000
C000
C000
FF80
FF80
ENDCHAR
STARTCHAR 00CB
ENCODING 203
SWIDTH 586 0
DWIDTH 11 0
BBX 9 17 2 0
BITMAP
6300
6300
0000
FF80
FF80
C000
C000
C000
C000
FF00
FF00
C000
C000
C000
C000
FF80
FF80
ENDCHAR
STARTCHAR 00CC
ENCODING 204
SWIDTH 320 0
DWIDTH 6 0
BBX 4 18 1 0
BITMAP
C0
E0
30
00
60
60
60
60
60
60
60
60
60
60
60
60
60
60
ENDCHAR
STARTCHAR 00CD
ENCODING 205
SWIDTH 320 0
DWIDTH 6 0
BBX 4 18 1 0
BITMAP
30
F0
C0
00
60
60
60
60
60
60
60
60
60
60
60
60
60
60
ENDCHAR
STARTCHAR 00CE
ENCODING 206
SWIDTH 320 0
DWIDTH 6 0
BBX 6 18 0 1
BITMAP
30
FC
08
00
30
30
30
30
30
30
30
30
30
30
30
30
30
30
ENDCHAR
STARTCHAR 00CF
ENCODING 207
SWIDTH 373 0
DWIDTH 7 0
BBX 7 17 0 0
BITMAP
E6
E6
00
0C
0C
0C
0C
0C
0C
0C
0C
0C
0C
0C
0C
0C
0C
ENDCHAR
STARTCHAR 00D0
ENCODING 208
SWIDTH 746 0
DWIDTH 14 0
BBX 12 14 1 0
BITMAP
7F00
7FC0
61E0
6060
6070
6030
6030
FE30
6030
6070
6060
61E0
7FC0
7F00
ENDCHAR
STARTCHAR 00D1
ENCODING 209
SWIDTH 800 0
DWIDTH 15 0
BBX 11 18 2 0
BITMAP
1D00
1F00
1600
0000
8060
C060
E060
F060
F860
FC60
DE60
CF60
C7E0
C3E0
C1E0
C0E0
C060
C020
ENDCHAR
STARTCHAR 00D2
ENCODING 210
SWIDTH 800 0
DWIDTH 15 0
BBX 13 18 1 0
BITMAP
0400
0700
0180
0000
0F80
3FE0
78F0
6030
E038
C018
C018
C018
C018
E038
6030
78F0
3FE0
0F80
ENDCHAR
STARTCHAR 00D3
ENCODING 211
SWIDTH 800 0
DWIDTH 15 0
BBX 13 18 1 0
BITMAP
0100
0780
0400
0000
0F80
3FE0
78F0
6030
E038
C018
C018
C018
C018
E038
6030
78F0
3FE0
0F80
ENDCHAR
STARTCHAR 00D4
ENCODING 212
SWIDTH 800 0
DWIDTH 15 0
BBX 13 18 1 0
BITMAP
0700
0F80
0880
0000
0F80
3FE0
78F0
6030
E038
C018
C018
C018
C018
E038
6030
78F0
3FE0
0F80
ENDCHAR
STARTCHAR 00D5
ENCODING 213
SWIDTH 800 0
DWIDTH 15 0
BBX 13 18 1 0
BITMAP
0E80
0F80
0B80
0000
0F80
3FE0
78F0
6030
E038
C018
C018
C018
C018
E038
6030
78F0
3FE0
0F80
ENDCHAR
STARTCHAR 00D6
ENCODING 214
SWIDTH 800 0
DWIDTH 15 0
BBX 13 18 1 0
BITMAP
18C0
18C0
0000
0000
0F80
3FE0
78F0
6030
E038
C018
C018
C018
C018
E038
6030
78F0
3FE0
0F80
ENDCHAR
STARTCHAR 00D7
ENCODING 215
SWIDTH 480 0
DWIDTH 9 0
BBX 7 7 1 3
BITMAP
C4
EC
7C
38
7C
EE
44
ENDCHAR
STARTCHAR 00D8
ENCODING 216
SWIDTH 800 0
DWIDTH 15 0
BBX 13 14 1 0
BITMAP
0F88
1FF0
38F0
6070
E0F8
C198
C318
C618
CC18
F838
7030
78E0
7FC0
8F80
ENDCHAR
STARTCHAR 00D9
ENCODING 217
SWIDTH 746 0
DWIDTH 14 0
BBX 10 18 2 0
BITMAP
1800
1C00
0600
0000
C0C0
C0C0
C0C0
C0C0
C0C0
C0C0
C0C0
C0C0
C0C0
C0C0
C0C0
7180
3F80
1E00
ENDCHAR
STARTCHAR 00DA
ENCODING 218
SWIDTH 746 0
DWIDTH 14 0
BBX 10 18 2 0
BITMAP
0600
1E00
1800
0000
C0C0
C0C0
C0C0
C0C0
C0C0
C0C0
C0C0
C0C0
C0C0
C0C0
C0C0
7180
3F80
1E00
ENDCHAR
STARTCHAR 00DB
ENCODING 219
SWIDTH 746 0
DWIDTH 14 0
BBX 10 18 2 1
BITMAP
0C00
3F00
1000
0000
C0C0
C0C0
C0C0
C0C0
C0C0
C0C0
C0C0
C0C0
C0C0
C0C0
C0C0
7180
3F80
1E00
ENDCHAR
STARTCHAR 00DC
ENCODING 220
SWIDTH 746 0
DWIDTH 14 0
BBX 10 18 2 0
BITMAP
3180
3180
0000
0000
C0C0
C0C0
C0C0
C0C0
C0C0
C0C0
C0C0
C0C0
C0C0
C0C0
C0C0
7180
3F80
1E00
ENDCHAR
STARTCHAR 00DD
ENCODING 221
SWIDTH 533 0
DWIDTH 10 0
BBX 10 18 0 0
BITMAP
0200
0E00
1800
0000
C0C0
E1C0
7380
3300
3F00
1E00
0E00
0C00
0C00
0C00
0C00
0C00
0C00
0C00
ENDCHAR
STARTCHAR 00DE
ENCODING 222
SWIDTH 640 0
DWIDTH 12 0
BBX 9 14 2 0
BITMAP
C000
C000
C000
FE00
FF00
C380
C180
C180
C380
FF00
FE00
C000
C000
C000
ENDCHAR
STARTCHAR 00DF
ENCODING 223
SWIDTH 533 0
DWIDTH 10 0
BBX 8 14 1 0
BITMAP
3C
7E
66
C6
C6
CC
CC
CC
CE
C7
C3
C3
CF
CE
ENDCHAR
STARTCHAR 00E0
ENCODING 224
SWIDTH 426 0
DWIDTH 8 0
BBX 6 13 1 1
BITMAP
70
38
08
00
00
F8
FC
0C
7C
CC
CC
CC
74
ENDCHAR
STARTCHAR 00E1
ENCODING 225
SWIDTH 426 0
DWIDTH 8 0
BBX 6 13 1 1
BITMAP
18
78
40
00
00
F8
FC
0C
7C
CC
CC
CC
74
ENDCHAR
STARTCHAR 00E2
ENCODING 226
SWIDTH 426 0
DWIDTH 8 0
BBX 6 13 1 1
BITMAP
38
7C
44
00
00
F8
FC
0C
7C
CC
CC
CC
74
ENDCHAR
STARTCHAR 00E3
ENCODING 227
SWIDTH 426 0
DWIDTH 8 0
BBX 6 14 1 0
BITMAP
04
7C
F8
80
00
00
F8
FC
0C
7C
CC
CC
CC
74
ENDCHAR
STARTCHAR 00E4
ENCODING 228
SWIDTH 426 0
DWIDTH 8 0
BBX 6 13 1 0
BITMAP
6C
6C
00
00
00
F8
FC
0C
7C
CC
CC
CC
74
ENDCHAR
STARTCHAR 00E5
ENCODING 229
SWIDTH 480 0
DWIDTH 9 0
BBX 7 14 1 0
BITMAP
18
24
24
18
00
00
7C
7E
06
7E
E6
C6
CE
7E
ENDCHAR
STARTCHAR 00E6
ENCODING 230
SWIDTH 693 0
DWIDTH 13 0
BBX 12 8 1 0
BITMAP
7FC0
7FE0
0E60
7FF0
CE00
CE00
FFE0
73C0
ENDCHAR
STARTCHAR 00E7
ENCODING 231
SWIDTH 480 0
DWIDTH 9 0
BBX 7 13 1 -5
BITMAP
3C
7E
E4
C0
C0
E6
7E
3C
10
18
0C
04
1C
ENDCHAR
STARTCHAR 00E8
ENCODING 232
SWIDTH 480 0
DWIDTH 9 0
BBX 8 13 1 1
BITMAP
70
38
08
00
00
3C
7E
E6
FF
C0
E4
7E
3C
ENDCHAR
STARTCHAR 00E9
ENCODING 233
SWIDTH 480 0
DWIDTH 9 0
BBX 8 13 1 1
BITMAP
18
78
40
00
00
3C
7E
E6
FF
C0
E4
7E
3C
ENDCHAR
STARTCHAR 00EA
ENCODING 234
SWIDTH 480 0
DWIDTH 9 0
BBX 8 13 1 1
BITMAP
38
7C
44
00
00
3C
7E
E6
FF
C0
E4
7E
3C
ENDCHAR
STARTCHAR 00EB
ENCODING 235
SWIDTH 480 0
DWIDTH 9 0
BBX 8 13 1 0
BITMAP
66
66
00
00
00
3C
7E
E6
FF
C0
E4
7E
3C
ENDCHAR
STARTCHAR 00EC
ENCODING 236
SWIDTH 213 0
DWIDTH 4 0
BBX 4 13 0 1
BITMAP
E0
70
10
00
00
60
60
60
60
60
60
60
60
ENDCHAR
STARTCHAR 00ED
ENCODING 237
SWIDTH 213 0
DWIDTH 4 0
BBX 4 13 0 1
BITMAP
30
F0
80
00
00
60
60
60
60
60
60
60
60
ENDCHAR
STARTCHAR 00EE
ENCODING 238
SWIDTH 213 0
DWIDTH 4 0
BBX 6 13 -1 1
BITMAP
78
FC
00
00
00
30
30
30
30
30
30
30
30
ENDCHAR
STARTCHAR 00EF
ENCODING 239
SWIDTH 213 0
DWIDTH 4 0
BBX 6 13 -1 0
BITMAP
CC
CC
00
00
00
30
30
30
30
30
30
30
30
ENDCHAR
STARTCHAR 00F0
ENCODING 240
SWIDTH 586 0
DWIDTH 11 0
BBX 9 14 1 0
BITMAP
3000
3E00
1E00
2700
0300
3F80
7F80
E380
C180
C180
C180
E300
7F00
3E00
ENDCHAR
STARTCHAR 00F1
ENCODING 241
SWIDTH 533 0
DWIDTH 10 0
BBX 8 14 1 0
BITMAP
02
3E
7C
40
00
00
BC
FE
E7
C3
C3
C3
C3
C3
ENDCHAR
STARTCHAR 00F2
ENCODING 242
SWIDTH 533 0
DWIDTH 10 0
BBX 8 13 1 1
BITMAP
70
38
08
00
00
3C
7E
E7
C3
C3
E7
7E
3C
ENDCHAR
STARTCHAR 00F3
ENCODING 243
SWIDTH 533 0
DWIDTH 10 0
BBX 8 13 1 1
BITMAP
18
78
20
00
00
3C
7E
E7
C3
C3
E7
7E
3C
ENDCHAR
STARTCHAR 00F4
ENCODING 244
SWIDTH 533 0
DWIDTH 10 0
BBX 8 13 1 1
BITMAP
18
7E
24
00
00
3C
7E
E7
C3
C3
E7
7E
3C
ENDCHAR
STARTCHAR 00F5
ENCODING 245
SWIDTH 533 0
DWIDTH 10 0
BBX 8 14 1 0
BITMAP
04
7C
78
40
00
00
3C
7E
E7
C3
C3
E7
7E
3C
ENDCHAR
STARTCHAR 00F6
ENCODING 246
SWIDTH 533 0
DWIDTH 10 0
BBX 8 13 1 0
BITMAP
66
66
00
00
00
3C
7E
E7
C3
C3
E7
7E
3C
ENDCHAR
STARTCHAR 00F7
ENCODING 247
SWIDTH 533 0
DWIDTH 10 0
BBX 8 10 1 2
BITMAP
18
18
00
00
FF
FF
00
00
18
18
ENDCHAR
STARTCHAR 00F8
ENCODING 248
SWIDTH 533 0
DWIDTH 10 0
BBX 8 8 1 0
BITMAP
3D
7E
E7
CB
D3
E7
7E
BC
ENDCHAR
STARTCHAR 00F9
ENCODING 249
SWIDTH 480 0
DWIDTH 9 0
BBX 7 13 1 1
BITMAP
30
3C
04
00
00
C6
C6
C6
C6
C6
C6
FE
7A
ENDCHAR
STARTCHAR 00FA
ENCODING 250
SWIDTH 480 0
DWIDTH 9 0
BBX 7 13 1 1
BITMAP
1C
38
20
00
00
C6
C6
C6
C6
C6
C6
FE
7A
ENDCHAR
STARTCHAR 00FB
ENCODING 251
SWIDTH 480 0
DWIDTH 9 0
BBX 7 14 1 0
BITMAP
10
38
6C
44
00
00
C6
C6
C6
C6
C6
C6
FE
7A
ENDCHAR
STARTCHAR 00FC
ENCODING 252
SWIDTH 480 0
DWIDTH 9 0
BBX 7 13 1 0
BITMAP
66
66
00
00
00
C6
C6
C6
C6
C6
C6
FE
7A
ENDCHAR
STARTCHAR 00FD
ENCODING 253
SWIDTH 480 0
DWIDTH 9 0
BBX 9 19 0 -5
BITMAP
0C00
3C00
1000
0000
0000
E380
6300
6700
7600
3E00
3C00
1C00
1C00
1800
3800
3000
7000
6000
6000
ENDCHAR
STARTCHAR 00FE
ENCODING 254
SWIDTH 533 0
DWIDTH 10 0
BBX 8 20 1 -6
BITMAP
C0
C0
C0
C0
C0
C0
FC
FE
C7
C3
C3
C7
FE
FC
C0
C0
C0
C0
C0
C0
ENDCHAR
STARTCHAR 00FF
ENCODING 255
SWIDTH 426 0
DWIDTH 8 0
BBX 8 19 0 -6
BITMAP
66
66
00
00
00
C3
E7
66
66
3C
3C
3C
18
38
30
70
60
60
E0
ENDCHAR
STARTCHAR 0100
ENCODING 256
SWIDTH 640 0
DWIDTH 12 0
BBX 12 17 0 0
BITMAP
1F80
0000
0000
0600
0600
0700
0F00
0F00
1F80
1980
39C0
30C0
7FE0
7FE0
E070
C030
C030
ENDCHAR
STARTCHAR 0101
ENCODING 257
SWIDTH 480 0
DWIDTH 9 0
BBX 7 12 1 0
BITMAP
7E
00
00
00
7C
7E
06
7E
E6
C6
CE
7E
ENDCHAR
STARTCHAR 0102
ENCODING 258
SWIDTH 640 0
DWIDTH 12 0
BBX 12 18 0 0
BITMAP
0880
0980
0F00
0000
0200
0600
0700
0F00
0F80
1D80
1980
19C0
38C0
3FE0
7FE0
6070
E030
E030
ENDCHAR
STARTCHAR 0103
ENCODING 259
SWIDTH 426 0
DWIDTH 8 0
BBX 6 13 1 0
BITMAP
4C
78
00
00
00
F8
FC
0C
7C
CC
CC
CC
74
ENDCHAR
STARTCHAR 0104
ENCODING 260
SWIDTH 640 0
DWIDTH 12 0
BBX 12 18 0 -4
BITMAP
0200
0600
0700
0F00
0F00
0D80
1D80
18C0
38C0
3FE0
7FE0
6060
6070
E030
0040
0040
0040
0070
ENDCHAR
STARTCHAR 0105
ENCODING 261
SWIDTH 426 0
DWIDTH 8 0
BBX 7 12 1 -4
BITMAP
78
FC
0C
7C
CC
CC
CC
74
08
08
08
0E
ENDCHAR
STARTCHAR 0106
ENCODING 262
SWIDTH 640 0
DWIDTH 12 0
BBX 11 18 1 0
BITMAP
0100
0780
0400
0000
0F80
3FE0
78C0
6000
E000
C000
C000
C000
C000
E000
6000
78C0
3FE0
0F80
ENDCHAR
STARTCHAR 0107
ENCODING 263
SWIDTH 426 0
DWIDTH 8 0
BBX 7 13 1 1
BITMAP
1C
38
20
00
00
3C
7E
E4
C0
C0
E4
7E
3C
ENDCHAR
STARTCHAR 0108
ENCODING 264
SWIDTH 640 0
DWIDTH 12 0
BBX 11 18 1 0
BITMAP
0600
0F00
0980
0000
0F80
3FE0
78C0
6000
E000
C000
C000
C000
C000
E000
6000
78C0
3FE0
0F80
ENDCHAR
STARTCHAR 0109
ENCODING 265
SWIDTH 426 0
DWIDTH 8 0
BBX 7 13 1 1
BITMAP
18
7C
44
00
00
3C
7E
E4
C0
C0
E4
7E
3C
ENDCHAR
STARTCHAR 010A
ENCODING 266
SWIDTH 693 0
DWIDTH 13 0
BBX 11 18 1 0
BITMAP
0700
0700
0200
0000
0F80
3FE0
78C0
6000
E000
C000
C000
C000
C000
E000
6000
78C0
3FE0
0F80
ENDCHAR
STARTCHAR 010B
ENCODING 267
SWIDTH 426 0
DWIDTH 8 0
BBX 7 13 1 0
BITMAP
38
38
10
00
00
3C
7E
E4
C0
C0
E4
7E
3C
ENDCHAR
STARTCHAR 010C
ENCODING 268
SWIDTH 640 0
DWIDTH 12 0
BBX 11 18 1 0
BITMAP
1980
0F00
0600
0000
0F80
3FE0
78C0
6000
E000
C000
C000
C000
C000
E000
6000
78C0
3FE0
0F80
ENDCHAR
STARTCHAR 010D
ENCODING 269
SWIDTH 426 0
DWIDTH 8 0
BBX 7 13 1 1
BITMAP
6E
3C
10
00
00
3C
7E
E4
C0
C0
E4
7E
3C
ENDCHAR
STARTCHAR 010E
ENCODING 270
SWIDTH 746 0
DWIDTH 14 0
BBX 11 18 2 1
BITMAP
3600
1C00
0800
0000
FE00
FF80
C3C0
C0C0
C0E0
C060
C060
C060
C060
C0E0
C0C0
C3C0
FF80
FE00
ENDCHAR
STARTCHAR 010F
ENCODING 271
SWIDTH 533 0
DWIDTH 10 0
BBX 12 14 1 0
BITMAP
0330
0330
0310
0310
0320
0300
3F00
7F00
E300
C300
C300
E700
7F00
3D00
ENDCHAR
STARTCHAR 0110
ENCODING 272
SWIDTH 746 0
DWIDTH 14 0
BBX 12 14 1 0
BITMAP
7F00
7FC0
61E0
6060
6070
6030
6030
FE30
6030
6070
6060
61E0
7FC0
7F00
ENDCHAR
STARTCHAR 0111
ENCODING 273
SWIDTH 533 0
DWIDTH 10 0
BBX 9 14 1 0
BITMAP
0300
0300
0300
1F80
0300
0300
3F00
7F00
E300
C300
C300
E700
7F00
3D00
ENDCHAR
STARTCHAR 0112
ENCODING 274
SWIDTH 586 0
DWIDTH 11 0
BBX 9 17 2 0
BITMAP
7E00
0000
0000
FF80
FF80
C000
C000
C000
C000
FF00
FF00
C000
C000
C000
C000
FF80
FF80
ENDCHAR
STARTCHAR 0113
ENCODING 275
SWIDTH 480 0
DWIDTH 9 0
BBX 8 13 1 0
BITMAP
7E
00
00
00
00
3C
7E
E6
FF
C0
E4
7E
3C
ENDCHAR
STARTCHAR 0114
ENCODING 276
SWIDTH 586 0
DWIDTH 11 0
BBX 9 17 2 1
BITMAP
2400
3C00
0000
FF80
FF80
C000
C000
C000
C000
FF00
FF00
C000
C000
C000
C000
FF80
FF80
ENDCHAR
STARTCHAR 0115
ENCODING 277
SWIDTH 480 0
DWIDTH 9 0
BBX 8 13 1 0
BITMAP
4C
78
00
00
00
3C
7E
E6
FF
C0
E4
7E
3C
ENDCHAR
STARTCHAR 0116
ENCODING 278
SWIDTH 586 0
DWIDTH 11 0
BBX 9 18 2 0
BITMAP
1800
1C00
0800
0000
FF80
FF80
C000
C000
C000
C000
FF00
FF00
C000
C000
C000
C000
FF80
FF80
ENDCHAR
STARTCHAR 0117
ENCODING 279
SWIDTH 480 0
DWIDTH 9 0
BBX 8 13 1 0
BITMAP
38
38
10
00
00
3C
7E
C6
FF
C0
E4
7E
3C
ENDCHAR
STARTCHAR 0118
ENCODING 280
SWIDTH 586 0
DWIDTH 11 0
BBX 9 18 2 -4
BITMAP
FF80
FF80
C000
C000
C000
C000
FF00
FF00
C000
C000
C000
C000
FF80
FF80
0300
0200
0200
0380
ENDCHAR
STARTCHAR 0119
ENCODING 281
SWIDTH 480 0
DWIDTH 9 0
BBX 7 12 1 -4
BITMAP
3C
7E
E6
E6
FE
C0
74
3E
18
10
10
1C
ENDCHAR
STARTCHAR 011A
ENCODING 282
SWIDTH 586 0
DWIDTH 11 0
BBX 9 18 2 1
BITMAP
6E00
3C00
1000
0000
FF80
FF80
C000
C000
C000
C000
FF00
FF00
C000
C000
C000
C000
FF80
FF80
ENDCHAR
STARTCHAR 011B
ENCODING 283
SWIDTH 480 0
DWIDTH 9 0
BBX 8 13 1 1
BITMAP
6E
3C
10
00
00
3C
7E
E6
FF
C0
E4
7E
3C
ENDCHAR
STARTCHAR 011C
ENCODING 284
SWIDTH 693 0
DWIDTH 13 0
BBX 11 18 1 0
BITMAP
0700
0F80
0880
0000
0F80
3FE0
78C0
6000
E000
C000
C000
C1E0
C1E0
E060
6060
78E0
3FE0
0F80
ENDCHAR
STARTCHAR 011D
ENCODING 285
SWIDTH 533 0
DWIDTH 10 0
BBX 8 19 1 -5
BITMAP
18
3E
22
00
00
3F
7E
66
66
66
7E
FC
C0
FE
7F
C3
C3
FE
7C
ENDCHAR
STARTCHAR 011E
ENCODING 286
SWIDTH 693 0
DWIDTH 13 0
BBX 11 18 1 0
BITMAP
0880
0D80
0700
0000
0F80
3FE0
78C0
6000
E000
C000
C000
C1E0
C1E0
E060
6060
78E0
3FE0
0F80
ENDCHAR
STARTCHAR 011F
ENCODING 287
SWIDTH 533 0
DWIDTH 10 0
BBX 8 19 1 -6
BITMAP
32
1E
00
00
00
3F
7E
66
66
66
7E
FC
C0
FE
7F
C3
C3
FE
7C
ENDCHAR
STARTCHAR 0120
ENCODING 288
SWIDTH 693 0
DWIDTH 13 0
BBX 11 18 1 0
BITMAP
0700
0700
0200
0000
0F80
3FE0
78C0
6000
E000
C000
C000
C1E0
C1E0
E060
6060
78E0
3FE0
0F80
ENDCHAR
STARTCHAR 0121
ENCODING 289
SWIDTH 533 0
DWIDTH 10 0
BBX 8 19 1 -6
BITMAP
18
1C
08
00
00
3F
7E
66
66
66
7E
FC
C0
FE
7F
C3
C3
FE
7C
ENDCHAR
STARTCHAR 0122
ENCODING 290
SWIDTH 693 0
DWIDTH 13 0
BBX 11 21 1 -7
BITMAP
0F80
3FE0
78C0
6000
E000
C000
C000
C1E0
C1E0
E060
6060
78E0
3FE0
0F80
0000
0000
0700
0700
0100
0300
0200
ENDCHAR
STARTCHAR 0123
ENCODING 291
SWIDTH 533 0
DWIDTH 10 0
BBX 8 22 1 -6
BITMAP
08
18
10
1C
1C
00
00
00
3F
7E
66
66
66
7E
FC
C0
FE
7F
C3
C3
FE
7C
ENDCHAR
STARTCHAR 0124
ENCODING 292
SWIDTH 800 0
DWIDTH 15 0
BBX 11 18 2 1
BITMAP
0E00
1F00
1100
0000
C060
C060
C060
C060
C060
C060
FFE0
FFE0
C060
C060
C060
C060
C060
C060
ENDCHAR
STARTCHAR 0125
ENCODING 293
SWIDTH 533 0
DWIDTH 10 0
BBX 10 18 -1 0
BITMAP
3000
7800
CC00
0000
3000
3000
3000
3000
3000
3000
3F00
3F80
39C0
30C0
30C0
30C0
30C0
30C0
ENDCHAR
STARTCHAR 0126
ENCODING 294
SWIDTH 800 0
DWIDTH 15 0
BBX 13 14 1 0
BITMAP
6030
6030
6030
FFF8
6030
6030
7FF0
7FF0
6030
6030
6030
6030
6030
6030
ENDCHAR
STARTCHAR 0127
ENCODING 295
SWIDTH 533 0
DWIDTH 10 0
BBX 9 14 0 0
BITMAP
6000
6000
6000
FC00
6000
6000
7E00
7F00
7380
6180
6180
6180
6180
6180
ENDCHAR
STARTCHAR 0128
ENCODING 296
SWIDTH 320 0
DWIDTH 6 0
BBX 6 18 0 0
BITMAP
64
FC
98
00
30
30
30
30
30
30
30
30
30
30
30
30
30
30
ENDCHAR
STARTCHAR 0129
ENCODING 297
SWIDTH 213 0
DWIDTH 4 0
BBX 6 14 -1 0
BITMAP
04
7C
78
C0
00
00
30
30
30
30
30
30
30
30
ENDCHAR
STARTCHAR 012A
ENCODING 298
SWIDTH 426 0
DWIDTH 8 0
BBX 6 17 1 0
BITMAP
FC
00
00
30
30
30
30
30
30
30
30
30
30
30
30
30
30
ENDCHAR
STARTCHAR 012B
ENCODING 299
SWIDTH 320 0
DWIDTH 6 0
BBX 6 12 0 0
BITMAP
FC
00
00
00
30
30
30
30
30
30
30
30
ENDCHAR
STARTCHAR 012C
ENCODING 300
SWIDTH 320 0
DWIDTH 6 0
BBX 5 18 0 0
BITMAP
08
C8
78
00
30
30
30
30
30
30
30
30
30
30
30
30
30
30
ENDCHAR
STARTCHAR 012D
ENCODING 301
SWIDTH 213 0
DWIDTH 4 0
BBX 5 13 0 0
BITMAP
98
F0
00
00
00
60
60
60
60
60
60
60
60
ENDCHAR
STARTCHAR 012E
ENCODING 302
SWIDTH 320 0
DWIDTH 6 0
BBX 3 18 1 -4
BITMAP
60
60
60
60
60
60
60
60
60
60
60
60
60
60
C0
80
80
E0
ENDCHAR
STARTCHAR 012F
ENCODING 303
SWIDTH 266 0
DWIDTH 5 0
BBX 3 17 1 -4
BITMAP
60
60
00
00
00
60
60
60
60
60
60
60
60
C0
80
80
E0
ENDCHAR
STARTCHAR 0130
ENCODING 304
SWIDTH 320 0
DWIDTH 6 0
BBX 2 18 2 0
BITMAP
C0
C0
C0
00
C0
C0
C0
C0
C0
C0
C0
C0
C0
C0
C0
C0
C0
C0
ENDCHAR
STARTCHAR 0131
ENCODING 305
SWIDTH 213 0
DWIDTH 4 0
BBX 2 8 1 0
BITMAP
C0
C0
C0
C0
C0
C0
C0
C0
ENDCHAR
STARTCHAR 0132
ENCODING 306
SWIDTH 746 0
DWIDTH 14 0
BBX 11 14 2 0
BITMAP
C060
C060
C060
C060
C060
C060
C060
C060
C060
C060
C060
C6E0
C7C0
C380
ENDCHAR
STARTCHAR 0133
ENCODING 307
SWIDTH 480 0
DWIDTH 9 0
BBX 7 19 1 -6
BITMAP
C6
C6
00
00
00
C6
C6
C6
C6
C6
C6
C6
C6
06
06
06
2E
3C
3C
ENDCHAR
STARTCHAR 0134
ENCODING 308
SWIDTH 373 0
DWIDTH 7 0
BBX 8 18 0 1
BITMAP
0C
3F
10
00
0C
0C
0C
0C
0C
0C
0C
0C
0C
0C
0C
DC
F8
70
ENDCHAR
STARTCHAR 0135
ENCODING 309
SWIDTH 213 0
DWIDTH 4 0
BBX 7 19 -2 -5
BITMAP
3C
7E
00
00
00
18
18
18
18
18
18
18
18
18
18
18
B8
F0
F0
ENDCHAR
STARTCHAR 0136
ENCODING 310
SWIDTH 640 0
DWIDTH 12 0
BBX 10 21 2 -7
BITMAP
C1C0
C380
C700
CE00
DC00
F800
F800
F800
DC00
CE00
CF00
C700
C380
C1C0
0000
0000
1C00
1C00
0400
0400
0800
ENDCHAR
STARTCHAR 0137
ENCODING 311
SWIDTH 480 0
DWIDTH 9 0
BBX 8 21 1 -7
BITMAP
C0
C0
C0
C0
C0
C0
CE
DC
D8
F0
F8
DC
CE
C7
00
00
38
38
08
08
10
ENDCHAR
STARTCHAR 0138
ENCODING 312
SWIDTH 480 0
DWIDTH 9 0
BBX 8 8 1 0
BITMAP
C6
CC
DC
F8
F8
DC
CE
C7
ENDCHAR
STARTCHAR 0139
ENCODING 313
SWIDTH 533 0
DWIDTH 10 0
BBX 9 18 1 0
BITMAP
3000
F000
C000
0000
6000
6000
6000
6000
6000
6000
6000
6000
6000
6000
6000
6000
7F80
7F80
ENDCHAR
STARTCHAR 013A
ENCODING 314
SWIDTH 213 0
DWIDTH 4 0
BBX 4 18 0 0
BITMAP
10
70
E0
00
60
60
60
60
60
60
60
60
60
60
60
60
60
60
ENDCHAR
STARTCHAR 013B
ENCODING 315
SWIDTH 533 0
DWIDTH 10 0
BBX 8 21 2 -7
BITMAP
C0
C0
C0
C0
C0
C0
C0
C0
C0
C0
C0
C0
FF
FF
00
00
38
38
08
08
10
ENDCHAR
STARTCHAR 013C
ENCODING 316
SWIDTH 266 0
DWIDTH 5 0
BBX 3 21 1 -7
BITMAP
C0
C0
C0
C0
C0
C0
C0
C0
C0
C0
C0
C0
C0
C0
00
00
E0
E0
20
20
40
ENDCHAR
STARTCHAR 013D
ENCODING 317
SWIDTH 533 0
DWIDTH 10 0
BBX 8 14 2 0
BITMAP
CE
CE
C2
C2
C4
C0
C0
C0
C0
C0
C0
C0
FF
FF
ENDCHAR
STARTCHAR 013E
ENCODING 318
SWIDTH 266 0
DWIDTH 5 0
BBX 7 14 1 0
BITMAP
CE
CE
C2
C2
C4
C0
C0
C0
C0
C0
C0
C0
C0
C0
ENDCHAR
STARTCHAR 013F
ENCODING 319
SWIDTH 586 0
DWIDTH 11 0
BBX 9 14 2 0
BITMAP
C000
C000
C000
C000
C000
C000
C300
C380
C100
C000
C000
C000
FF00
FF00
ENDCHAR
STARTCHAR 0140
ENCODING 320
SWIDTH 426 0
DWIDTH 8 0
BBX 6 14 1 0
BITMAP
C0
C0
C0
C0
C0
C0
CC
DC
C8
C0
C0
C0
C0
C0
ENDCHAR
STARTCHAR 0141
ENCODING 321
SWIDTH 533 0
DWIDTH 10 0
BBX 9 14 1 0
BITMAP
6000
6000
6000
6000
6800
7800
6000
E000
6000
6000
6000
6000
7F80
7F80
ENDCHAR
STARTCHAR 0142
ENCODING 322
SWIDTH 213 0
DWIDTH 4 0
BBX 5 14 0 0
BITMAP
60
60
60
60
68
70
60
E0
60
60
60
60
60
60
ENDCHAR
STARTCHAR 0143
ENCODING 323
SWIDTH 800 0
DWIDTH 15 0
BBX 11 18 2 0
BITMAP
0600
0E00
1800
0000
8060
C060
E060
F060
F860
FC60
DE60
CF60
C7E0
C3E0
C1E0
C0E0
C060
C020
ENDCHAR
STARTCHAR 0144
ENCODING 324
SWIDTH 533 0
DWIDTH 10 0
BBX 8 13 1 1
BITMAP
0C
38
20
00
00
BC
FE
E7
C3
C3
C3
C3
C3
ENDCHAR
STARTCHAR 0145
ENCODING 325
SWIDTH 800 0
DWIDTH 15 0
BBX 11 21 2 -7
BITMAP
8060
C060
E060
F060
F860
FC60
DE60
CF60
C7E0
C3E0
C1E0
C0E0
C060
C020
0000
0000
0E00
0E00
0200
0600
0400
ENDCHAR
STARTCHAR 0146
ENCODING 326
SWIDTH 533 0
DWIDTH 10 0
BBX 8 15 1 -7
BITMAP
BC
FE
E7
C3
C3
C3
C3
C3
00
00
38
38
08
08
10
ENDCHAR
STARTCHAR 0147
ENCODING 327
SWIDTH 800 0
DWIDTH 15 0
BBX 11 18 2 0
BITMAP
1B00
1E00
0400
0000
8060
C060
E060
F060
F860
FC60
DE60
CF60
C7E0
C3E0
C1E0
C0E0
C060
C020
ENDCHAR
STARTCHAR 0148
ENCODING 328
SWIDTH 533 0
DWIDTH 10 0
BBX 8 13 1 1
BITMAP
7E
1C
10
00
00
BC
FE
E7
C3
C3
C3
C3
C3
ENDCHAR
STARTCHAR 0149
ENCODING 329
SWIDTH 533 0
DWIDTH 10 0
BBX 12 14 -3 0
BITMAP
E000
E000
2000
2000
4000
0000
0BC0
0FE0
0E70
0C30
0C30
0C30
0C30
0C30
ENDCHAR
STARTCHAR 014A
ENCODING 330
SWIDTH 800 0
DWIDTH 15 0
BBX 11 20 2 -6
BITMAP
8060
C060
E060
F060
F860
FC60
DE60
CF60
C7E0
C3E0
C1E0
C0E0
C060
C060
0060
0060
0060
02E0
03C0
03C0
ENDCHAR
STARTCHAR 014B
ENCODING 331
SWIDTH 533 0
DWIDTH 10 0
BBX 8 14 1 -6
BITMAP
BC
FE
E7
C3
C3
C3
C3
C3
03
03
03
17
1E
1C
ENDCHAR
STARTCHAR 014C
ENCODING 332
SWIDTH 800 0
DWIDTH 15 0
BBX 13 17 1 0
BITMAP
0FC0
0000
0000
0F80
3FE0
78F0
6030
E038
C018
C018
C018
C018
E038
6030
78F0
3FE0
0F80
ENDCHAR
STARTCHAR 014D
ENCODING 333
SWIDTH 533 0
DWIDTH 10 0
BBX 8 13 1 0
BITMAP
7E
00
00
00
00
3C
7E
E7
C3
C3
E7
7E
3C
ENDCHAR
STARTCHAR 014E
ENCODING 334
SWIDTH 800 0
DWIDTH 15 0
BBX 13 18 1 0
BITMAP
0880
0D80
0700
0000
0F80
3FE0
78F0
6030
E038
C018
C018
C018
C018
E038
6030
78F0
3FE0
0F80
ENDCHAR
STARTCHAR 014F
ENCODING 335
SWIDTH 533 0
DWIDTH 10 0
BBX 8 13 1 0
BITMAP
4C
78
00
00
00
3C
7E
E7
C3
C3
E7
7E
3C
ENDCHAR
STARTCHAR 0150
ENCODING 336
SWIDTH 800 0
DWIDTH 15 0
BBX 13 19 1 0
BITMAP
06C0
06C0
04C0
0480
0000
0F80
3FE0
78F0
6030
E038
C018
C018
C018
C018
E038
6030
78F0
3FE0
0F80
ENDCHAR
STARTCHAR 0151
ENCODING 337
SWIDTH 533 0
DWIDTH 10 0
BBX 8 14 1 0
BITMAP
36
24
6C
00
00
00
3C
7E
E7
C3
C3
E7
7E
3C
ENDCHAR
STARTCHAR 0152
ENCODING 338
SWIDTH 960 0
DWIDTH 18 0
BBX 17 14 1 0
BITMAP
0FFF80
3FFF80
38C000
60C000
E0C000
C0C000
C0FF00
C0FF00
C0C000
E0C000
60C000
78C000
3FFF80
0FFF80
ENDCHAR
STARTCHAR 0153
ENCODING 339
SWIDTH 746 0
DWIDTH 14 0
BBX 13 8 1 0
BITMAP
39E0
7FF0
E730
C7F8
C600
E720
7FF0
39E0
ENDCHAR
STARTCHAR 0154
ENCODING 340
SWIDTH 693 0
DWIDTH 13 0
BBX 10 18 2 0
BITMAP
0C00
1C00
3000
0000
FF00
FF80
C1C0
C0C0
C0C0
C1C0
FF80
FF00
C700
C700
C380
C380
C1C0
C1C0
ENDCHAR
STARTCHAR 0155
ENCODING 341
SWIDTH 320 0
DWIDTH 6 0
BBX 5 13 1 1
BITMAP
30
F0
80
00
00
B8
F8
C0
C0
C0
C0
C0
C0
ENDCHAR
STARTCHAR 0156
ENCODING 342
SWIDTH 693 0
DWIDTH 13 0
BBX 10 21 2 -7
BITMAP
FF00
FF80
C1C0
C0C0
C0C0
C1C0
FF80
FF00
C700
C700
C380
C380
C1C0
C1C0
0000
0000
1C00
1C00
0400
0400
0800
ENDCHAR
STARTCHAR 0157
ENCODING 343
SWIDTH 373 0
DWIDTH 7 0
BBX 5 15 1 -7
BITMAP
F8
F8
C0
C0
C0
C0
C0
C0
00
00
E0
E0
20
20
40
ENDCHAR
STARTCHAR 0158
ENCODING 344
SWIDTH 693 0
DWIDTH 13 0
BBX 10 18 2 1
BITMAP
3600
1C00
0800
0000
FF00
FF80
C1C0
C0C0
C0C0
C1C0
FF80
FF00
C700
C700
C380
C380
C1C0
C1C0
ENDCHAR
STARTCHAR 0159
ENCODING 345
SWIDTH 320 0
DWIDTH 6 0
BBX 6 13 0 1
BITMAP
FC
78
20
00
00
5C
7C
60
60
60
60
60
60
ENDCHAR
STARTCHAR 015A
ENCODING 346
SWIDTH 586 0
DWIDTH 11 0
BBX 9 18 1 0
BITMAP
0C00
1C00
3000
0000
3C00
7F00
E600
C000
C000
F000
7C00
1F00
0700
0380
0380
E780
FF00
3E00
ENDCHAR
STARTCHAR 015B
ENCODING 347
SWIDTH 373 0
DWIDTH 7 0
BBX 5 13 1 1
BITMAP
30
F0
40
00
00
78
F8
C0
F0
38
18
F8
70
ENDCHAR
STARTCHAR 015C
ENCODING 348
SWIDTH 586 0
DWIDTH 11 0
BBX 9 18 1 0
BITMAP
1800
3C00
2600
0000
3C00
7F00
E600
C000
C000
F000
7C00
1F00
0700
0380
0380
E780
FF00
3E00
ENDCHAR
STARTCHAR 015D
ENCODING 349
SWIDTH 373 0
DWIDTH 7 0
BBX 5 13 1 1
BITMAP
70
F8
88
00
00
78
F8
C0
F0
38
18
F8
70
ENDCHAR
STARTCHAR 015E
ENCODING 350
SWIDTH 586 0
DWIDTH 11 0
BBX 9 19 1 -5
BITMAP
3C00
7F00
E600
C000
C000
F000
7C00
1F00
0700
0380
0380
C780
FF00
7E00
1000
1800
0C00
0400
1C00
ENDCHAR
STARTCHAR 015F
ENCODING 351
SWIDTH 373 0
DWIDTH 7 0
BBX 6 13 0 -5
BITMAP
78
FC
E0
70
3C
4C
7C
78
20
30
18
08
38
ENDCHAR
STARTCHAR 0160
ENCODING 352
SWIDTH 586 0
DWIDTH 11 0
BBX 9 18 1 0
BITMAP
6600
3C00
1800
0000
3C00
7F00
E600
C000
C000
F000
7C00
1F00
0700
0380
0380
E780
FF00
3E00
ENDCHAR
STARTCHAR 0161
ENCODING 353
SWIDTH 373 0
DWIDTH 7 0
BBX 6 13 1 1
BITMAP
DC
78
20
00
00
78
F8
C0
F0
38
18
F8
70
ENDCHAR
STARTCHAR 0162
ENCODING 354
SWIDTH 586 0
DWIDTH 11 0
BBX 9 21 1 -7
BITMAP
FF80
FF80
1800
1800
1800
1800
1800
1800
1800
1800
1800
1800
1800
1800
0000
0000
1800
1800
0800
0800
1000
ENDCHAR
STARTCHAR 0163
ENCODING 355
SWIDTH 373 0
DWIDTH 7 0
BBX 5 18 1 -7
BITMAP
60
60
60
F8
F8
60
60
60
60
78
38
00
00
38
38
08
18
10
ENDCHAR
STARTCHAR 0164
ENCODING 356
SWIDTH 586 0
DWIDTH 11 0
BBX 9 18 1 1
BITMAP
7E00
3C00
1800
0000
FF80
FF80
1800
1800
1800
1800
1800
1800
1800
1800
1800
1800
1800
1800
ENDCHAR
STARTCHAR 0165
ENCODING 357
SWIDTH 373 0
DWIDTH 7 0
BBX 9 14 1 0
BITMAP
0380
0380
0080
6080
6100
6000
F800
F800
6000
6000
6000
6000
7800
3800
ENDCHAR
STARTCHAR 0166
ENCODING 358
SWIDTH 586 0
DWIDTH 11 0
BBX 9 14 1 0
BITMAP
FF80
FF80
1800
1800
1800
1800
1800
7F00
1800
1800
1800
1800
1800
1800
ENDCHAR
STARTCHAR 0167
ENCODING 359
SWIDTH 373 0
DWIDTH 7 0
BBX 5 11 1 0
BITMAP
60
60
60
F8
F8
60
F8
60
60
78
38
ENDCHAR
STARTCHAR 0168
ENCODING 360
SWIDTH 746 0
DWIDTH 14 0
BBX 10 18 2 0
BITMAP
1B00
3E00
2600
0000
C0C0
C0C0
C0C0
C0C0
C0C0
C0C0
C0C0
C0C0
C0C0
C0C0
C0C0
7180
3F80
1E00
ENDCHAR
STARTCHAR 0169
ENCODING 361
SWIDTH 480 0
DWIDTH 9 0
BBX 7 14 1 0
BITMAP
06
3C
7C
40
00
00
C6
C6
C6
C6
C6
C6
FE
7A
ENDCHAR
STARTCHAR 016A
ENCODING 362
SWIDTH 746 0
DWIDTH 14 0
BBX 10 17 2 0
BITMAP
3F00
0000
0000
C0C0
C0C0
C0C0
C0C0
C0C0
C0C0
C0C0
C0C0
C0C0
C0C0
C0C0
7180
3F80
1E00
ENDCHAR
STARTCHAR 016B
ENCODING 363
SWIDTH 480 0
DWIDTH 9 0
BBX 7 12 1 0
BITMAP
7E
00
00
00
C6
C6
C6
C6
C6
C6
7E
7A
ENDCHAR
STARTCHAR 016C
ENCODING 364
SWIDTH 746 0
DWIDTH 14 0
BBX 10 18 2 0
BITMAP
3200
3200
1C00
0000
C0C0
C0C0
C0C0
C0C0
C0C0
C0C0
C0C0
C0C0
C0C0
C0C0
E1C0
7F80
3F80
1E00
ENDCHAR
STARTCHAR 016D
ENCODING 365
SWIDTH 480 0
DWIDTH 9 0
BBX 7 13 1 0
BITMAP
64
3C
00
00
00
C6
C6
C6
C6
C6
C6
FE
7A
ENDCHAR
STARTCHAR 016E
ENCODING 366
SWIDTH 746 0
DWIDTH 14 0
BBX 10 19 2 0
BITMAP
0C00
1200
1200
0C00
0000
C0C0
C0C0
C0C0
C0C0
C0C0
C0C0
C0C0
C0C0
C0C0
C0C0
C0C0
7180
3F80
1E00
ENDCHAR
STARTCHAR 016F
ENCODING 367
SWIDTH 480 0
DWIDTH 9 0
BBX 7 14 1 0
BITMAP
18
24
24
18
00
00
C6
C6
C6
C6
C6
C6
7E
7A
ENDCHAR
STARTCHAR 0170
ENCODING 368
SWIDTH 746 0
DWIDTH 14 0
BBX 10 19 2 0
BITMAP
1B80
1B00
1B00
1200
0000
C0C0
C0C0
C0C0
C0C0
C0C0
C0C0
C0C0
C0C0
C0C0
C0C0
C0C0
7180
3F80
1E00
ENDCHAR
STARTCHAR 0171
ENCODING 369
SWIDTH 480 0
DWIDTH 9 0
BBX 8 14 1 0
BITMAP
37
36
24
00
00
00
C6
C6
C6
C6
C6
C6
FE
7A
ENDCHAR
STARTCHAR 0172
ENCODING 370
SWIDTH 746 0
DWIDTH 14 0
BBX 10 18 2 -4
BITMAP
C0C0
C0C0
C0C0
C0C0
C0C0
C0C0
C0C0
C0C0
C0C0
C0C0
E1C0
7F80
3F80
1E00
0800
0800
0800
0E00
ENDCHAR
STARTCHAR 0173
ENCODING 371
SWIDTH 480 0
DWIDTH 9 0
BBX 8 12 1 -4
BITMAP
C6
C6
C6
C6
C6
CE
FE
7A
04
04
04
07
ENDCHAR
STARTCHAR 0174
ENCODING 372
SWIDTH 906 0
DWIDTH 17 0
BBX 15 18 1 1
BITMAP
0380
07C0
0440
0000
C106
C306
C38E
E38E
67CC
66CC
66DC
7CF8
3C78
3C78
3838
3830
1830
1010
ENDCHAR
STARTCHAR 0175
ENCODING 373
SWIDTH 640 0
DWIDTH 12 0
BBX 11 14 0 0
BITMAP
0400
0E00
1F00
0100
0000
0000
C460
6660
6EE0
6FC0
3BC0
39C0
3180
1080
ENDCHAR
STARTCHAR 0176
ENCODING 374
SWIDTH 533 0
DWIDTH 10 0
BBX 10 18 0 1
BITMAP
0C00
3F00
1000
0000
C0C0
E1C0
7380
3300
3F00
1E00
0E00
0C00
0C00
0C00
0C00
0C00
0C00
0C00
ENDCHAR
STARTCHAR 0177
ENCODING 375
SWIDTH 480 0
DWIDTH 9 0
BBX 9 20 0 -6
BITMAP
0800
1C00
3600
2200
0000
0000
E380
6300
6700
7600
3E00
3C00
1C00
1C00
1800
3800
3000
7000
6000
6000
ENDCHAR
STARTCHAR 0178
ENCODING 376
SWIDTH 586 0
DWIDTH 11 0
BBX 10 17 0 0
BITMAP
3180
3180
0000
E0C0
E1C0
7180
3B80
3B00
1E00
0E00
0C00
0C00
0C00
0C00
0C00
0C00
0C00
ENDCHAR
STARTCHAR 0179
ENCODING 377
SWIDTH 586 0
DWIDTH 11 0
BBX 9 18 1 0
BITMAP
0600
0E00
1800
0000
FF80
FF80
0700
0700
0E00
0E00
1C00
1C00
3800
3800
7000
7000
FF80
FF80
ENDCHAR
STARTCHAR 017A
ENCODING 378
SWIDTH 373 0
DWIDTH 7 0
BBX 6 13 1 1
BITMAP
38
70
40
00
00
FC
F8
38
30
70
60
F8
F8
ENDCHAR
STARTCHAR 017B
ENCODING 379
SWIDTH 586 0
DWIDTH 11 0
BBX 9 18 1 0
BITMAP
1C00
1C00
0800
0000
FF80
FF80
0700
0700
0E00
0E00
1C00
1C00
3800
3800
7000
7000
FF80
FF80
ENDCHAR
STARTCHAR 017C
ENCODING 380
SWIDTH 373 0
DWIDTH 7 0
BBX 6 13 1 0
BITMAP
30
38
10
00
00
FC
FC
18
38
30
70
78
F8
ENDCHAR
STARTCHAR 017D
ENCODING 381
SWIDTH 586 0
DWIDTH 11 0
BBX 9 18 1 1
BITMAP
3600
1C00
0800
0000
FF80
FF80
0700
0700
0E00
0E00
1C00
1C00
3800
3800
7000
7000
FF80
FF80
ENDCHAR
STARTCHAR 017E
ENCODING 382
SWIDTH 373 0
DWIDTH 7 0
BBX 6 13 1 1
BITMAP
F8
70
20
00
00
FC
F8
38
30
70
60
F8
F8
ENDCHAR
STARTCHAR 0192
ENCODING 402
SWIDTH 426 0
DWIDTH 8 0
BBX 8 20 0 -6
BITMAP
0F
1F
1D
18
18
18
7E
7E
18
18
18
18
18
18
18
18
18
38
F0
E0
ENDCHAR
STARTCHAR 01FA
ENCODING 506
SWIDTH 640 0
DWIDTH 12 0
BBX 12 20 0 0
BITMAP
0300
0700
0C00
0600
0900
0900
0F00
0600
0600
0F00
0F00
1F80
1980
3980
30C0
3FC0
7FE0
6060
E070
C070
ENDCHAR
STARTCHAR 01FB
ENCODING 507
SWIDTH 480 0
DWIDTH 9 0
BBX 7 16 1 0
BITMAP
18
38
60
18
2C
24
24
18
7C
7E
06
7E
E6
C6
CE
7E
ENDCHAR
STARTCHAR 01FC
ENCODING 508
SWIDTH 906 0
DWIDTH 17 0
BBX 17 18 0 0
BITMAP
000800
003C00
002000
000000
00FF80
01FF80
01C000
03C000
03C000
07C000
0EFF00
0CFF00
1CC000
1FC000
3FC000
70C000
60FF80
E0FF80
ENDCHAR
STARTCHAR 01FD
ENCODING 509
SWIDTH 693 0
DWIDTH 13 0
BBX 12 13 1 1
BITMAP
0300
0E00
0800
0000
0000
7FC0
7FE0
0E60
7FF0
CE00
CE00
FFE0
73C0
ENDCHAR
STARTCHAR 01FE
ENCODING 510
SWIDTH 800 0
DWIDTH 15 0
BBX 13 18 1 0
BITMAP
0100
0700
0400
0000
0F88
1FF0
38F0
6070
E0F8
C198
C318
C618
CC18
F838
7030
78E0
7FC0
8F80
ENDCHAR
STARTCHAR 01FF
ENCODING 511
SWIDTH 533 0
DWIDTH 10 0
BBX 8 13 1 1
BITMAP
18
78
20
00
00
3D
7E
E7
CB
D3
E7
7E
BC
ENDCHAR
STARTCHAR 0218
ENCODING 536
SWIDTH 586 0
DWIDTH 11 0
BBX 9 21 1 -7
BITMAP
3C00
7F00
E600
C000
C000
F000
7C00
1F00
0700
0380
0380
E780
FF00
3E00
0000
0000
1C00
1C00
0400
0C00
0800
ENDCHAR
STARTCHAR 0219
ENCODING 537
SWIDTH 373 0
DWIDTH 7 0
BBX 5 15 1 -7
BITMAP
F8
F8
C0
E0
38
98
F8
F0
00
00
70
70
10
30
20
ENDCHAR
STARTCHAR 021A
ENCODING 538
SWIDTH 586 0
DWIDTH 11 0
BBX 9 21 1 -7
BITMAP
FF80
FF80
1800
1800
1800
1800
1800
1800
1800
1800
1800
1800
1800
1800
0000
0000
1C00
1C00
0400
0400
0800
ENDCHAR
STARTCHAR 021B
ENCODING 539
SWIDTH 373 0
DWIDTH 7 0
BBX 5 18 1 -7
BITMAP
60
60
60
F8
F8
60
60
60
60
78
38
00
00
38
38
08
18
10
ENDCHAR
STARTCHAR 0237
ENCODING 567
SWIDTH 213 0
DWIDTH 4 0
BBX 5 14 -2 -6
BITMAP
18
18
18
18
18
18
18
18
18
18
18
B8
F0
F0
ENDCHAR
STARTCHAR 02C6
ENCODING 710
SWIDTH 373 0
DWIDTH 7 0
BBX 5 3 1 11
BITMAP
70
F8
88
ENDCHAR
STARTCHAR 02C7
ENCODING 711
SWIDTH 373 0
DWIDTH 7 0
BBX 5 3 1 11
BITMAP
D8
70
20
ENDCHAR
STARTCHAR 02C9
ENCODING 713
SWIDTH 426 0
DWIDTH 8 0
BBX 6 1 1 11
BITMAP
FC
ENDCHAR
STARTCHAR 02D8
ENCODING 728
SWIDTH 320 0
DWIDTH 6 0
BBX 5 2 1 11
BITMAP
98
F0
ENDCHAR
STARTCHAR 02D9
ENCODING 729
SWIDTH 266 0
DWIDTH 5 0
BBX 3 3 1 10
BITMAP
40
E0
C0
ENDCHAR
STARTCHAR 02DA
ENCODING 730
SWIDTH 320 0
DWIDTH 6 0
BBX 4 4 1 10
BITMAP
60
90
90
60
ENDCHAR
STARTCHAR 02DB
ENCODING 731
SWIDTH 266 0
DWIDTH 5 0
BBX 3 4 1 -4
BITMAP
C0
80
80
E0
ENDCHAR
STARTCHAR 02DC
ENCODING 732
SWIDTH 373 0
DWIDTH 7 0
BBX 5 3 1 11
BITMAP
68
F8
B8
ENDCHAR
STARTCHAR 02DD
ENCODING 733
SWIDTH 373 0
DWIDTH 7 0
BBX 6 3 1 10
BITMAP
FC
D8
90
ENDCHAR
STARTCHAR 0394
ENCODING 916
SWIDTH 693 0
DWIDTH 13 0
BBX 13 14 0 0
BITMAP
0200
0300
0700
0700
0F80
0D80
1DC0
1CC0
18E0
3860
3060
7070
7FF0
FFF8
ENDCHAR
STARTCHAR 03A9
ENCODING 937
SWIDTH 800 0
DWIDTH 15 0
BBX 14 14 1 0
BITMAP
0FC0
1FE0
3FF0
7078
E038
E01C
C01C
C01C
E01C
6018
7038
3870
FCFC
FCFC
ENDCHAR
STARTCHAR 03BC
ENCODING 956
SWIDTH 533 0
DWIDTH 10 0
BBX 7 14 1 -6
BITMAP
C6
C6
C6
C6
C6
EE
FE
FA
C0
C0
C0
C0
C0
C0
ENDCHAR
STARTCHAR 03C0
ENCODING 960
SWIDTH 693 0
DWIDTH 13 0
BBX 11 8 1 0
BITMAP
FFE0
FFE0
3180
3180
3180
3180
3180
3180
ENDCHAR
STARTCHAR 1E80
ENCODING 7808
SWIDTH 906 0
DWIDTH 17 0
BBX 15 18 1 0
BITMAP
0200
0780
0080
0000
C106
C306
C38E
E38E
67CC
66CC
66DC
7CF8
3C78
3C78
3838
3830
1830
1010
ENDCHAR
STARTCHAR 1E81
ENCODING 7809
SWIDTH 640 0
DWIDTH 12 0
BBX 11 13 0 1
BITMAP
0C00
0F00
0100
0000
0000
C460
6660
6EE0
6FC0
3BC0
39C0
3180
1080
ENDCHAR
STARTCHAR 1E82
ENCODING 7810
SWIDTH 906 0
DWIDTH 17 0
BBX 15 18 1 0
BITMAP
0080
0380
0600
0000
C106
C306
C38E
E38E
67CC
66CC
66DC
7CF8
3C78
3C78
3838
3830
1830
1010
ENDCHAR
STARTCHAR 1E83
ENCODING 7811
SWIDTH 640 0
DWIDTH 12 0
BBX 11 13 0 1
BITMAP
0700
0E00
0800
0000
0000
C460
6660
6EE0
6FC0
3BC0
39C0
3180
1080
ENDCHAR
STARTCHAR 1E84
ENCODING 7812
SWIDTH 906 0
DWIDTH 17 0
BBX 15 18 1 0
BITMAP
0C60
0C60
0000
0000
C106
C106
E38E
E38E
67CC
66CC
76DC
3C7C
3C78
3C78
3838
1830
1830
1010
ENDCHAR
STARTCHAR 1E85
ENCODING 7813
SWIDTH 640 0
DWIDTH 12 0
BBX 10 13 1 0
BITMAP
3300
3300
0000
0000
0000
CCC0
CCC0
DEC0
7F80
7380
7380
6180
2100
ENDCHAR
STARTCHAR 1EF2
ENCODING 7922
SWIDTH 533 0
DWIDTH 10 0
BBX 10 18 0 0
BITMAP
0800
1E00
0200
0000
C0C0
E1C0
7380
3300
3F00
1E00
0E00
0C00
0C00
0C00
0C00
0C00
0C00
0C00
ENDCHAR
STARTCHAR 1EF3
ENCODING 7923
SWIDTH 480 0
DWIDTH 9 0
BBX 9 19 0 -5
BITMAP
3800
1C00
0400
0000
0000
E380
6300
6700
7600
3E00
3C00
1C00
1C00
1800
3800
3000
7000
6000
6000
ENDCHAR
STARTCHAR 2013
ENCODING 8211
SWIDTH 533 0
DWIDTH 10 0
BBX 8 1 1 4
BITMAP
FF
ENDCHAR
STARTCHAR 2014
ENCODING 8212
SWIDTH 746 0
DWIDTH 14 0
BBX 12 1 1 4
BITMAP
FFF0
ENDCHAR
STARTCHAR 2018
ENCODING 8216
SWIDTH 213 0
DWIDTH 4 0
BBX 3 5 1 8
BITMAP
40
C0
80
E0
E0
ENDCHAR
STARTCHAR 2019
ENCODING 8217
SWIDTH 266 0
DWIDTH 5 0
BBX 3 5 1 9
BITMAP
E0
E0
20
20
40
ENDCHAR
STARTCHAR 201A
ENCODING 8218
SWIDTH 266 0
DWIDTH 5 0
BBX 3 5 1 -3
BITMAP
E0
E0
20
60
40
ENDCHAR
STARTCHAR 201C
ENCODING 8220
SWIDTH 426 0
DWIDTH 8 0
BBX 6 5 1 8
BITMAP
44
88
88
EC
EC
ENDCHAR
STARTCHAR 201D
ENCODING 8221
SWIDTH 480 0
DWIDTH 9 0
BBX 7 5 1 9
BITMAP
EE
EE
22
22
44
ENDCHAR
STARTCHAR 201E
ENCODING 8222
SWIDTH 480 0
DWIDTH 9 0
BBX 7 5 1 -3
BITMAP
EE
EE
22
66
44
ENDCHAR
STARTCHAR 2020
ENCODING 8224
SWIDTH 640 0
DWIDTH 12 0
BBX 10 20 1 -6
BITMAP
0C00
0C00
0C00
0C00
0C00
0C00
FFC0
FFC0
0C00
0C00
0C00
0C00
0C00
0C00
0C00
0C00
0C00
0C00
0C00
0C00
ENDCHAR
STARTCHAR 2021
ENCODING 8225
SWIDTH 640 0
DWIDTH 12 0
BBX 10 20 1 -6
BITMAP
0C00
0C00
0C00
0C00
FFC0
FFC0
0C00
0C00
0C00
0C00
0C00
0C00
FF80
FF80
0800
0800
0800
0800
0800
0800
ENDCHAR
STARTCHAR 2022
ENCODING 8226
SWIDTH 373 0
DWIDTH 7 0
BBX 5 5 1 2
BITMAP
70
F8
F8
F8
70
ENDCHAR
STARTCHAR 2026
ENCODING 8230
SWIDTH 693 0
DWIDTH 13 0
BBX 11 3 1 0
BITMAP
4440
EEE0
CCC0
ENDCHAR
STARTCHAR 2030
ENCODING 8240
SWIDTH 1013 0
DWIDTH 19 0
BBX 17 14 1 0
BITMAP
708000
F98000
D90000
DB0000
FA0000
760000
040000
0C0000
080000
19C700
1BEF80
336D80
336D80
61C700
ENDCHAR
STARTCHAR 2039
ENCODING 8249
SWIDTH 266 0
DWIDTH 5 0
BBX 4 7 0 1
BITMAP
30
30
60
E0
60
30
30
ENDCHAR
STARTCHAR 203A
ENCODING 8250
SWIDTH 266 0
DWIDTH 5 0
BBX 4 7 1 1
BITMAP
C0
C0
60
70
60
C0
C0
ENDCHAR
STARTCHAR 2044
ENCODING 8260
SWIDTH 106 0
DWIDTH 2 0
BBX 8 14 -3 0
BITMAP
01
03
02
06
04
0C
08
18
10
30
30
60
60
C0
ENDCHAR
STARTCHAR 2070
ENCODING 8304
SWIDTH 373 0
DWIDTH 7 0
BBX 5 6 1 9
BITMAP
70
D0
D8
D8
F0
70
ENDCHAR
STARTCHAR 2074
ENCODING 8308
SWIDTH 373 0
DWIDTH 7 0
BBX 5 6 1 9
BITMAP
10
30
70
F0
F8
30
ENDCHAR
STARTCHAR 2075
ENCODING 8309
SWIDTH 320 0
DWIDTH 6 0
BBX 4 6 1 9
BITMAP
F0
C0
F0
10
50
70
ENDCHAR
STARTCHAR 2076
ENCODING 8310
SWIDTH 320 0
DWIDTH 6 0
BBX 4 6 1 9
BITMAP
30
40
F0
D0
D0
70
ENDCHAR
STARTCHAR 2077
ENCODING 8311
SWIDTH 320 0
DWIDTH 6 0
BBX 4 6 1 9
BITMAP
F0
30
20
60
40
C0
ENDCHAR
STARTCHAR 2078
ENCODING 8312
SWIDTH 373 0
DWIDTH 7 0
BBX 4 6 1 9
BITMAP
70
D0
70
D0
D0
70
ENDCHAR
STARTCHAR 2079
ENCODING 8313
SWIDTH 320 0
DWIDTH 6 0
BBX 4 6 1 9
BITMAP
70
D0
D0
F0
10
60
ENDCHAR
STARTCHAR 2080
ENCODING 8320
SWIDTH 373 0
DWIDTH 7 0
BBX 5 6 1 -3
BITMAP
70
D0
D8
D8
F0
70
ENDCHAR
STARTCHAR 2081
ENCODING 8321
SWIDTH 213 0
DWIDTH 4 0
BBX 3 6 1 -3
BITMAP
60
E0
60
60
60
60
ENDCHAR
STARTCHAR 2082
ENCODING 8322
SWIDTH 320 0
DWIDTH 6 0
BBX 4 6 1 -3
BITMAP
E0
B0
30
20
40
F0
ENDCHAR
STARTCHAR 2083
ENCODING 8323
SWIDTH 320 0
DWIDTH 6 0
BBX 4 6 1 -3
BITMAP
E0
B0
E0
20
B0
E0
ENDCHAR
STARTCHAR 2084
ENCODING 8324
SWIDTH 373 0
DWIDTH 7 0
BBX 5 6 1 -3
BITMAP
10
30
70
F0
F8
30
ENDCHAR
STARTCHAR 2085
ENCODING 8325
SWIDTH 320 0
DWIDTH 6 0
BBX 4 6 1 -3
BITMAP
F0
C0
F0
10
50
70
ENDCHAR
STARTCHAR 2086
ENCODING 8326
SWIDTH 320 0
DWIDTH 6 0
BBX 4 6 1 -3
BITMAP
30
40
F0
D0
D0
70
ENDCHAR
STARTCHAR 2087
ENCODING 8327
SWIDTH 320 0
DWIDTH 6 0
BBX 4 6 1 -3
BITMAP
F0
30
20
60
40
C0
ENDCHAR
STARTCHAR 2088
ENCODING 8328
SWIDTH 373 0
DWIDTH 7 0
BBX 4 6 1 -3
BITMAP
70
D0
70
D0
D0
70
ENDCHAR
STARTCHAR 2089
ENCODING 8329
SWIDTH 320 0
DWIDTH 6 0
BBX 4 6 1 -3
BITMAP
70
D0
D0
F0
10
60
ENDCHAR
STARTCHAR 20AC
ENCODING 8364
SWIDTH 640 0
DWIDTH 12 0
BBX 12 14 0 0
BITMAP
07C0
1FF0
3C60
3000
7000
6000
FF00
6000
FE00
7000
3000
3C60
1FF0
07C0
ENDCHAR
STARTCHAR 2113
ENCODING 8467
SWIDTH 480 0
DWIDTH 9 0
BBX 7 13 1 0
BITMAP
0E
12
32
22
26
24
4C
70
E0
40
40
46
3C
ENDCHAR
STARTCHAR 2122
ENCODING 8482
SWIDTH 746 0
DWIDTH 14 0
BBX 12 6 1 7
BITMAP
FA20
2320
2360
2370
26F0
26B0
ENDCHAR
STARTCHAR 2126
ENCODING 8486
SWIDTH 800 0
DWIDTH 15 0
BBX 13 13 1 0
BITMAP
1FC0
3FE0
78F0
E070
C038
C038
C018
C038
C038
E070
70E0
F9F8
F9F8
ENDCHAR
STARTCHAR 212E
ENCODING 8494
SWIDTH 800 0
DWIDTH 15 0
BBX 13 13 1 0
BITMAP
1F80
3060
6030
C010
C018
C018
FFF8
C000
C000
C000
6020
3060
1F80
ENDCHAR
STARTCHAR 2153
ENCODING 8531
SWIDTH 693 0
DWIDTH 13 0
BBX 11 14 1 0
BITMAP
6180
E180
6100
6300
6200
6600
0400
0C00
08E0
1820
1020
30C0
2020
61E0
ENDCHAR
STARTCHAR 2154
ENCODING 8532
SWIDTH 746 0
DWIDTH 14 0
BBX 12 14 1 0
BITMAP
E0C0
B0C0
3080
6180
4100
F300
0200
0600
0470
0C10
0810
1860
1010
30F0
ENDCHAR
STARTCHAR 215B
ENCODING 8539
SWIDTH 693 0
DWIDTH 13 0
BBX 11 14 1 0
BITMAP
6180
E180
6100
6300
6200
6600
0400
0C00
08E0
19A0
10E0
31A0
21A0
60E0
ENDCHAR
STARTCHAR 215C
ENCODING 8540
SWIDTH 693 0
DWIDTH 13 0
BBX 11 14 1 0
BITMAP
E180
3180
3100
E300
3200
F600
0400
0C00
08E0
19A0
10E0
31A0
21A0
60E0
ENDCHAR
STARTCHAR 215D
ENCODING 8541
SWIDTH 693 0
DWIDTH 13 0
BBX 12 14 0 0
BITMAP
F0C0
C0C0
F080
1980
1900
F300
0200
0600
0470
0CD0
0870
18D0
10D0
3070
ENDCHAR
STARTCHAR 215E
ENCODING 8542
SWIDTH 693 0
DWIDTH 13 0
BBX 11 14 1 0
BITMAP
F180
3180
2100
6300
4200
C600
0400
0C00
09E0
1920
10C0
31A0
21A0
60C0
ENDCHAR
STARTCHAR 2202
ENCODING 8706
SWIDTH 586 0
DWIDTH 11 0
BBX 9 13 1 0
BITMAP
3000
3C00
1E00
0700
0300
3F80
7F80
E380
C180
C180
E380
7F00
3E00
ENDCHAR
STARTCHAR 2206
ENCODING 8710
SWIDTH 693 0
DWIDTH 13 0
BBX 13 13 0 0
BITMAP
0200
0700
0700
0780
0F80
0DC0
1DC0
18C0
38E0
3060
7070
7FF0
FFF8
ENDCHAR
STARTCHAR 220F
ENCODING 8719
SWIDTH 693 0
DWIDTH 13 0
BBX 11 13 1 0
BITMAP
FFE0
FFE0
C060
C060
C060
C060
C060
C060
C060
C060
C060
C060
C060
ENDCHAR
STARTCHAR 2211
ENCODING 8721
SWIDTH 533 0
DWIDTH 10 0
BBX 8 13 1 0
BITMAP
FF
7F
70
38
1C
0E
06
0E
1C
38
70
FF
FF
ENDCHAR
STARTCHAR 2212
ENCODING 8722
SWIDTH 533 0
DWIDTH 10 0
BBX 8 2 1 6
BITMAP
FF
FF
ENDCHAR
STARTCHAR 2215
ENCODING 8725
SWIDTH 106 0
DWIDTH 2 0
BBX 8 13 -3 0
BITMAP
01
03
06
06
0C
0C
18
18
30
30
60
60
C0
ENDCHAR
STARTCHAR 2219
ENCODING 8729
SWIDTH 373 0
DWIDTH 7 0
BBX 3 3 2 3
BITMAP
E0
E0
E0
ENDCHAR
STARTCHAR 221A
ENCODING 8730
SWIDTH 693 0
DWIDTH 13 0
BBX 12 13 1 0
BITMAP
01F0
01F0
0180
0380
0300
0700
E600
6E00
7C00
3C00
3800
1800
1000
ENDCHAR
STARTCHAR 221E
ENCODING 8734
SWIDTH 586 0
DWIDTH 11 0
BBX 9 5 1 3
BITMAP
7700
FF80
CD80
FF80
7700
ENDCHAR
STARTCHAR 222B
ENCODING 8747
SWIDTH 373 0
DWIDTH 7 0
BBX 9 19 -1 -6
BITMAP
0F80
0F80
1C00
1800
1800
1800
1800
1800
1800
1800
1800
1800
1800
1800
1800
1800
3800
F800
F000
ENDCHAR
STARTCHAR 2248
ENCODING 8776
SWIDTH 480 0
DWIDTH 9 0
BBX 7 6 1 2
BITMAP
66
FC
08
20
FE
9C
ENDCHAR
STARTCHAR 2260
ENCODING 8800
SWIDTH 480 0
DWIDTH 9 0
BBX 7 9 1 0
BITMAP
04
04
FE
FE
10
10
FE
FE
40
ENDCHAR
STARTCHAR 2264
ENCODING 8804
SWIDTH 480 0
DWIDTH 9 0
BBX 8 11 0 1
BITMAP
01
07
1E
78
F0
3C
0F
01
00
FF
FF
ENDCHAR
STARTCHAR 2265
ENCODING 8805
SWIDTH 480 0
DWIDTH 9 0
BBX 8 11 0 1
BITMAP
80
E0
78
1E
0F
3C
F0
C0
00
FF
FF
ENDCHAR
STARTCHAR 25CA
ENCODING 9674
SWIDTH 693 0
DWIDTH 13 0
BBX 11 13 1 0
BITMAP
0600
0E00
1F00
3B80
31C0
70C0
E0E0
71C0
3980
1B80
1F00
0E00
0400
ENDCHAR
STARTCHAR F8FF
ENCODING 63743
SWIDTH 586 0
DWIDTH 11 0
BBX 9 13 1 0
BITMAP
FF80
FF80
E380
FD80
F980
F380
F780
FF80
FF80
F780
F780
FF80
FF80
ENDCHAR
STARTCHAR FB01
ENCODING 64257
SWIDTH 586 0
DWIDTH 11 0
BBX 9 14 1 0
BITMAP
1E00
3E00
7200
6000
6000
6000
FF80
FF80
6180
6180
6180
6180
6180
6180
ENDCHAR
STARTCHAR FB02
ENCODING 64258
SWIDTH 533 0
DWIDTH 10 0
BBX 8 14 1 0
BITMAP
1D
3F
73
63
63
63
FB
FB
63
63
63
63
63
63
ENDCHAR
ENDFONT
